<?xml version="1.0" standalone="no"?>
<!DOCTYPE svg PUBLIC "-//W3C//DTD SVG 20010904//EN"
 "http://www.w3.org/TR/2001/REC-SVG-20010904/DTD/svg10.dtd">
<svg version="1.0" xmlns="http://www.w3.org/2000/svg"
 width="552.000000pt" height="552.000000pt" viewBox="0 0 552.000000 552.000000"
 preserveAspectRatio="xMidYMid meet">
<metadata>
Created by potrace 1.14, written by Peter Selinger 2001-2017
</metadata>
<g transform="translate(0.000000,552.000000) scale(0.100000,-0.100000)"
fill="#000000" stroke="none">
<path d="M2698 4899 c-25 -4 -73 -15 -105 -25 -32 -9 -63 -18 -68 -19 -6 -2
-46 -17 -89 -35 -201 -84 -385 -196 -607 -370 -96 -75 -309 -284 -409 -400
-87 -102 -240 -310 -302 -412 -32 -51 -61 -98 -66 -103 -23 -28 -122 -239
-145 -310 -36 -111 -45 -162 -42 -247 3 -138 78 -225 211 -244 200 -30 481 48
739 204 109 66 249 162 253 173 2 5 8 9 13 9 20 0 136 107 126 116 -15 15 -96
-25 -204 -100 -196 -135 -392 -225 -611 -280 -172 -44 -242 -34 -277 40 -19
41 -23 161 -7 204 5 14 10 30 11 35 3 23 23 89 31 104 4 9 23 48 40 86 57 123
60 130 70 145 5 8 32 56 61 105 45 79 132 207 193 287 12 14 32 41 46 59 46
62 143 174 187 217 54 54 350 278 418 317 28 16 52 32 55 35 11 14 191 111
260 141 278 120 415 77 415 -131 0 -41 -3 -97 -7 -125 -16 -112 -19 -133 -33
-200 -8 -38 -17 -85 -20 -104 -3 -19 -8 -37 -10 -41 -2 -4 -7 -22 -10 -41 -20
-119 -110 -394 -198 -609 -55 -136 -174 -391 -187 -400 -3 -3 -22 -35 -40 -72
-19 -37 -39 -74 -45 -81 -5 -8 -55 -36 -110 -63 -134 -67 -399 -225 -425 -253
-3 -4 -32 -24 -64 -46 -32 -22 -71 -49 -86 -60 -16 -11 -66 -47 -111 -80 -46
-32 -86 -61 -89 -65 -3 -3 -52 -41 -110 -84 -118 -89 -245 -192 -305 -247 -22
-20 -69 -63 -104 -95 -484 -441 -718 -727 -777 -949 -19 -74 -21 -186 -4 -243
15 -48 58 -96 101 -111 75 -26 213 9 350 90 60 35 273 189 289 209 3 3 34 30
70 59 105 86 342 321 500 497 78 87 264 311 335 404 28 36 53 67 56 70 31 27
424 577 560 782 61 94 67 99 126 122 130 53 240 112 257 139 32 50 -80 54
-191 6 l-43 -18 56 110 c57 114 114 236 114 244 0 2 12 30 26 61 62 136 210
567 227 664 3 14 14 61 26 106 11 44 23 98 26 120 4 21 8 46 10 54 3 8 7 33
10 55 4 22 8 51 11 65 3 14 7 45 10 70 3 25 7 56 8 70 3 23 -6 106 -18 156 -8
36 -44 101 -78 139 -50 58 -116 86 -233 99 -11 1 -41 -1 -67 -5z m-501 -2307
c-16 -37 -190 -320 -218 -357 -5 -5 -36 -46 -71 -90 -34 -43 -72 -91 -84 -105
-12 -14 -31 -35 -42 -48 -247 -286 -744 -784 -966 -967 -27 -22 -58 -49 -70
-60 -44 -43 -157 -117 -213 -140 -51 -20 -106 -29 -165 -26 -25 1 -51 47 -50
87 2 52 54 146 150 276 120 160 178 225 397 443 246 247 362 351 540 485 55
41 102 77 105 80 3 3 50 38 105 78 55 40 107 79 115 85 28 23 192 124 300 185
25 14 74 43 110 63 36 20 66 37 67 38 1 1 -3 -11 -10 -27z"/>
<path d="M4947 4814 c-1 -1 -31 -4 -67 -7 -69 -5 -162 -23 -195 -37 -11 -4
-40 -16 -65 -25 -115 -42 -294 -158 -499 -323 -193 -155 -197 -159 -361 -322
-138 -138 -232 -238 -306 -326 -42 -50 -68 -79 -108 -124 -128 -146 -384 -528
-490 -734 -18 -33 -37 -70 -44 -81 -55 -95 -158 -374 -168 -454 -3 -25 -8 -49
-10 -53 -3 -5 -6 -47 -5 -93 0 -69 4 -93 26 -139 15 -31 36 -61 48 -68 12 -6
24 -14 27 -18 10 -16 108 -38 150 -34 138 11 257 57 418 161 79 51 270 188
282 202 3 3 41 35 85 70 44 35 92 76 106 90 14 14 55 51 90 83 35 31 89 80
120 110 64 61 182 172 290 273 147 137 424 401 496 473 41 39 76 72 78 72 9 0
-44 -175 -72 -240 -3 -8 -7 -17 -8 -20 -1 -3 -5 -14 -10 -25 -4 -11 -20 -51
-35 -90 -52 -132 -69 -164 -90 -175 -12 -6 -31 -20 -43 -30 -12 -10 -65 -52
-118 -92 -259 -197 -655 -564 -860 -797 -41 -46 -79 -89 -84 -95 -6 -6 -33
-38 -60 -71 -28 -33 -52 -62 -55 -65 -17 -16 -189 -232 -266 -335 -162 -215
-308 -467 -360 -620 -33 -99 -40 -197 -16 -237 23 -40 78 -55 140 -40 26 7 55
14 65 17 28 6 181 90 239 131 184 128 450 388 633 619 22 27 45 55 50 61 6 6
21 26 35 44 14 18 30 38 36 45 23 22 206 278 292 408 184 274 353 567 487 844
47 98 93 193 103 212 18 37 195 166 332 243 82 46 130 88 130 112 0 32 -65 15
-170 -44 -36 -21 -96 -54 -134 -74 -81 -44 -79 -53 -18 124 50 142 109 345
113 385 5 52 -9 73 -66 101 -45 21 -63 25 -98 20 -57 -9 -57 -8 -322 -325 -11
-13 -24 -29 -30 -35 -12 -14 -61 -70 -140 -162 -68 -79 -475 -488 -609 -613
-49 -45 -133 -117 -185 -159 -53 -42 -97 -80 -99 -84 -2 -4 -10 -8 -17 -8 -7
0 -15 -4 -17 -8 -3 -8 -127 -95 -183 -129 -72 -44 -181 -79 -271 -86 -76 -6
-147 23 -170 71 -21 46 -21 136 1 223 20 79 85 242 130 329 18 36 44 86 57
113 12 26 26 47 30 47 5 0 8 6 8 13 1 11 85 146 109 174 6 7 11 15 11 18 0 3
5 11 10 18 6 7 51 65 100 130 102 135 140 179 290 332 141 144 249 247 335
318 39 33 79 66 90 76 154 130 410 317 540 396 100 60 274 148 338 169 166 56
258 14 259 -118 1 -77 -27 -159 -98 -287 -65 -119 -78 -165 -49 -189 19 -16
79 -5 125 23 153 93 246 292 217 465 -21 123 -125 224 -262 256 -61 13 -181
27 -188 20z m-473 -2201 c-42 -82 -94 -179 -116 -216 -21 -38 -38 -71 -38 -75
0 -3 -6 -13 -14 -21 -7 -9 -28 -43 -46 -76 -43 -79 -99 -173 -154 -260 -25
-38 -57 -90 -72 -115 -86 -143 -338 -488 -452 -620 -201 -231 -338 -345 -424
-353 -166 -16 -144 181 50 463 76 111 291 399 336 451 17 19 51 59 76 89 25
29 63 74 85 99 63 73 363 371 445 442 41 35 77 66 80 69 3 3 37 32 75 65 39
33 81 69 95 81 46 40 145 123 148 123 2 1 -31 -65 -74 -146z"/>
</g>
</svg>
