<svg version="1.1" id="Agentes_de_seguros_y_fianzas" xmlns="http://www.w3.org/2000/svg" x="0" y="0" viewBox="0 0 792 208.9" xml:space="preserve"><style>.st0{fill-rule:evenodd;clip-rule:evenodd;fill:#a98414}</style><path class="st0" d="M244.6 129.2l18.9.2-.3-104.4c40-1.1 37.3 30.3 17.8 36.1v18.5c51.4-11.7 43.2-86.8-36.2-70.4l-.2 120zM344.8 10.1h17.7v119.3h-17.7zm60.6 117.1h16.8l13.4-74.9 35 78.2 34.9-78.6 13 75 17.2.3-24.9-124-40 91.8-40.9-92.3zm166.5-31.7l16.3-3.4c2.8 35.7 48.7 25.9 41.4-5-16.8-24.2-64.7-21.3-49.3-64C591.6-.2 632.7-.2 643 24.5c-4.3 2.7-8.6 5.4-12.9 8.2-16-29.9-64.3 6.2-15.6 22.5 25.5 6.6 45.3 31.6 22.5 63.1-29.6 27.7-65.2 1.5-65.1-22.8zM728.4 2.3l56.7 125.8h-17L755 98.4h-52.6L689 128.1l-17.2-.5L728.4 2.3zm-19.8 81l39.2.2-19.1-45s-19.9 44.8-20.1 44.8z"/><path d="M253.8 160.4h5l9.8 27.4h-5.1l-1.7-5.7h-10.9l-1.7 5.7H244l9.8-27.4zm7 18.4l-4.5-15-4.5 15h9zm18.8-10.4h4.1l2.3 3.2.6-3.2h4v21.1c0 6-4.3 10-10.8 10-1.8 0-4.2-.2-6-.6v-4.5c1.7 1.2 3.9 1.6 6 1.6 3.8 0 6.3-2.6 6.3-6.6V184c-1.5 2.5-3.8 4.1-6.4 4.1-5.2 0-8.7-4-8.7-10-.2-5.8 3.3-9.7 8.6-9.7zm.9 16.3c3 0 5.5-3.2 5.5-7.1v-5.7h-5.5c-2.9 0-4.9 2.5-4.9 6.3s1.9 6.5 4.9 6.5zm24.9 0c1.9 0 3.8-.4 5.4-1.5v4.2c-1.8.5-3.5.7-5.4.7-6.3 0-10.6-4-10.6-10s3.9-10 9.7-10c5.3 0 8.8 3.4 8.8 8.4v1.3c0 1.1-.6 1.7-1.7 1.7h-12.2c.5 3.4 2.5 5.2 6 5.2zm-3.7-8.3h7.7c0-3.3-1.7-5.1-4.9-5.1-3.3 0-5.1 2.4-5.1 6.8v.8l2.3-2.5zm16-8h4.3l.3 4.5c1.5-2.9 4.1-4.8 6.9-4.8 5 0 8.3 2.4 8.3 6v13.7h-4.6V175c0-2.1-1.6-3.4-4-3.4-3.6 0-6.6 3.7-6.6 8.3v8h-4.6v-19.5zm29.6-6.8v6.8h7.4v3.1h-7.4v8.8c0 3 1.1 4.6 3 4.6s3.4-.4 5-1.5v4c-1.8.4-3.1.6-5 .6-4.9 0-7.6-2.7-7.6-7.7v-17.1l4.6-1.6zm21.7 23.1c1.9 0 3.8-.4 5.4-1.5v4.2c-1.8.5-3.5.7-5.4.7-6.3 0-10.6-4-10.6-10s3.9-10 9.7-10c5.3 0 8.8 3.4 8.8 8.4v1.3c0 1.1-.6 1.7-1.7 1.7H363c.5 3.4 2.6 5.2 6 5.2zm-3.7-8.3h7.7c0-3.3-1.7-5.1-4.9-5.1-3.3 0-5.1 2.4-5.1 6.8v.8l2.3-2.5zm33.7-8h4l2.4 3.3V157h4.6v25.6c0 2.3.2 5.4.2 5.4l-4.2-.2-.2-4.3c-1.5 2.8-3.9 4.7-6.7 4.7-5.2 0-8.7-4-8.7-10-.2-5.9 3.3-9.8 8.6-9.8zm.9 16.3c3 0 5.5-3.2 5.5-7.1v-5.7h-5.5c-2.9 0-4.9 2.5-4.9 6.3s1.9 6.5 4.9 6.5zm24.8 0c1.9 0 3.8-.4 5.4-1.5v4.2c-1.8.5-3.5.7-5.4.7-6.3 0-10.6-4-10.6-10s3.9-10 9.7-10c5.3 0 8.8 3.4 8.8 8.4v1.3c0 1.1-.6 1.7-1.7 1.7h-12.2c.6 3.4 2.6 5.2 6 5.2zm-3.7-8.3h7.7c0-3.3-1.7-5.1-4.9-5.1-3.3 0-5.1 2.4-5.1 6.8v.8l2.3-2.5zm25.8 4.8c2.2 1.6 6.4 3.4 9.1 3.4 3.6 0 6-1.5 6-3.7 0-2.3-2.6-3.8-6.2-5.1-4.4-1.6-9-3.9-9-8.6 0-4.6 3.7-7.1 10.6-7.1 2.5 0 5.5.7 7.4 1.8v4.6c-1.5-1.5-4.3-2.9-7.4-2.9-3.7 0-5.7 1.3-5.7 3.7 0 1.7 2 2.7 5.6 4 4.5 1.7 9.5 3.9 9.5 9.4 0 4.5-4.3 7.4-10.8 7.4-2.9 0-7.4-1.1-9.1-2.1v-4.8zm33.7 3.5c1.9 0 3.8-.4 5.4-1.5v4.2c-1.8.5-3.5.7-5.4.7-6.3 0-10.6-4-10.6-10s3.9-10 9.7-10c5.3 0 8.8 3.4 8.8 8.4v1.3c0 1.1-.6 1.7-1.7 1.7h-12.2c.5 3.4 2.6 5.2 6 5.2zm-3.7-8.3h7.7c0-3.3-1.7-5.1-4.9-5.1-3.3 0-5.1 2.4-5.1 6.8v.8l2.3-2.5zm23.4-8h4.1l2.3 3.2.6-3.2h4v21.1c0 6-4.3 10-10.8 10-1.8 0-4.2-.2-6-.6v-4.5c1.7 1.2 3.9 1.6 6 1.6 3.8 0 6.3-2.6 6.3-6.6V184c-1.5 2.5-3.8 4.1-6.4 4.1-5.2 0-8.7-4-8.7-10-.1-5.8 3.3-9.7 8.6-9.7zm.9 16.3c3 0 5.5-3.2 5.5-7.1v-5.7h-5.5c-2.9 0-4.9 2.5-4.9 6.3s2 6.5 4.9 6.5zm20-16.3v12.8c0 2.1 1.6 3.4 4 3.4 3.6 0 6.6-3.7 6.6-8.3v-8h4.6v19.4H532l-.3-4.5c-1.5 2.9-4.1 4.8-6.9 4.8-5 0-8.3-2.4-8.3-6v-13.7h4.6zm25.1 0l.2 4.4c1.6-2.8 4.3-4.7 7.3-4.7h1.9v4.9h-3.1c-3.6 0-6 2.2-6 5.4v9.4H542v-19.4h4.2zm21.4-.3c6 0 10 4 10 10s-4 10-10 10-10-4-10-10 4-10 10-10zm0 16.6c3.2 0 5.3-2.6 5.3-6.6 0-3.9-2.1-6.6-5.3-6.6s-5.3 2.6-5.3 6.6c0 3.9 2.1 6.6 5.3 6.6zm13.7-2.4c2.2 1.6 5 2.5 7.1 2.5 2.9 0 4.3-.8 4.3-2.2 0-1.3-1.7-2.1-4-2.7-3.4-.9-7.4-2-7.4-6.5 0-3.4 3.1-5.3 8.8-5.3 1.8 0 3.6.2 5.4.6v4.6c-1.6-1.1-3.5-1.9-5.7-1.9-2.8 0-4.3.6-4.3 1.8 0 1.2 1.9 2.1 4.2 2.7 3.4.9 7.2 2 7.2 6.1 0 3.9-3.2 6-9.1 6-2.1 0-4.7-.6-6.6-1.3v-4.4zm34.3-13.9l5.5 14.7 4.3-14.7h5.4l-8 19.9c-2.6 6.3-6.5 10.9-12.8 10.9v-4c4.5 0 7.4-3.6 9.3-7.6l-9-19.2h5.3zm29.4-8h16.5v3.7h-11.7v8.3h9.4v3.7h-9.4v11.7H645v-27.4zm20.8-1.4c0-.6.1-.6.6-.6h3.9v3.4c0 .6-.1.6-.6.6h-3.9V159zm4.6 9.4v14.2c0 2.3.2 5.4.2 5.4l-4.5-.2-.3-5v-14.3h4.6zm13 0h4.1l2.3 3.2.6-3.2h4v14.2c0 2.3.2 5.4.2 5.4l-4.2-.2-.2-4.2c-1.5 2.8-3.9 4.6-6.7 4.6-5.2 0-8.7-4-8.7-10-.1-5.9 3.4-9.8 8.6-9.8zm.9 16.3c3 0 5.5-3.1 5.5-6.8v-6h-5.5c-2.9 0-4.9 2.5-4.9 6.3s2 6.5 4.9 6.5zm15.8-16.3h4.3l.3 4.5c1.5-2.9 4.1-4.8 6.9-4.8 5 0 8.3 2.4 8.3 6v13.7h-4.6V175c0-2.1-1.6-3.4-4-3.4-3.6 0-6.6 3.7-6.6 8.3v8h-4.6v-19.5zm34.8 3.1H724v-3.1h18l-11.8 16.3h11.2v3.1h-18.3l11.8-16.3zm18.1-3.1h4.1l2.3 3.2.6-3.2h4v14.2c0 2.3.2 5.4.2 5.4l-4.2-.2-.2-4.2c-1.5 2.8-3.9 4.6-6.7 4.6-5.2 0-8.7-4-8.7-10-.1-5.9 3.4-9.8 8.6-9.8zm1 16.3c3 0 5.5-3.1 5.5-6.8v-6H754c-2.9 0-4.9 2.5-4.9 6.3-.1 3.8 1.9 6.5 4.9 6.5zm15.1-2.4c2.2 1.6 5 2.5 7.1 2.5 2.9 0 4.3-.8 4.3-2.2 0-1.3-1.7-2.1-4-2.7-3.4-.9-7.4-2-7.4-6.5 0-3.4 3.1-5.3 8.8-5.3 1.8 0 3.6.2 5.4.6v4.6c-1.6-1.1-3.5-1.9-5.7-1.9-2.8 0-4.3.6-4.3 1.8 0 1.2 1.9 2.1 4.2 2.7 3.4.9 7.2 2 7.2 6.1 0 3.9-3.2 6-9.1 6-2.1 0-4.7-.6-6.6-1.3v-4.4z" fill="#14234a"/><path d="M253.8 160.4h5l9.8 27.4h-5.1l-1.7-5.7h-10.9l-1.7 5.7H244l9.8-27.4zm7 18.4l-4.5-15-4.5 15h9zm18.8-10.4h4.1l2.3 3.2.6-3.2h4v21.1c0 6-4.3 10-10.8 10-1.8 0-4.2-.2-6-.6v-4.5c1.7 1.2 3.9 1.6 6 1.6 3.8 0 6.3-2.6 6.3-6.6V184c-1.5 2.5-3.8 4.1-6.4 4.1-5.2 0-8.7-4-8.7-10-.2-5.8 3.3-9.7 8.6-9.7zm.9 16.3c3 0 5.5-3.2 5.5-7.1v-5.7h-5.5c-2.9 0-4.9 2.5-4.9 6.3s1.9 6.5 4.9 6.5zm24.9 0c1.9 0 3.8-.4 5.4-1.5v4.2c-1.8.5-3.5.7-5.4.7-6.3 0-10.6-4-10.6-10s3.9-10 9.7-10c5.3 0 8.8 3.4 8.8 8.4v1.3c0 1.1-.6 1.7-1.7 1.7h-12.2c.5 3.4 2.5 5.2 6 5.2zm-3.7-8.3h7.7c0-3.3-1.7-5.1-4.9-5.1-3.3 0-5.1 2.4-5.1 6.8v.8l2.3-2.5zm16-8h4.3l.3 4.5c1.5-2.9 4.1-4.8 6.9-4.8 5 0 8.3 2.4 8.3 6v13.7h-4.6V175c0-2.1-1.6-3.4-4-3.4-3.6 0-6.6 3.7-6.6 8.3v8h-4.6v-19.5zm29.6-6.8v6.8h7.4v3.1h-7.4v8.8c0 3 1.1 4.6 3 4.6s3.4-.4 5-1.5v4c-1.8.4-3.1.6-5 .6-4.9 0-7.6-2.7-7.6-7.7v-17.1l4.6-1.6zm21.7 23.1c1.9 0 3.8-.4 5.4-1.5v4.2c-1.8.5-3.5.7-5.4.7-6.3 0-10.6-4-10.6-10s3.9-10 9.7-10c5.3 0 8.8 3.4 8.8 8.4v1.3c0 1.1-.6 1.7-1.7 1.7H363c.5 3.4 2.6 5.2 6 5.2zm-3.7-8.3h7.7c0-3.3-1.7-5.1-4.9-5.1-3.3 0-5.1 2.4-5.1 6.8v.8l2.3-2.5zm33.7-8h4l2.4 3.3V157h4.6v25.6c0 2.3.2 5.4.2 5.4l-4.2-.2-.2-4.3c-1.5 2.8-3.9 4.7-6.7 4.7-5.2 0-8.7-4-8.7-10-.2-5.9 3.3-9.8 8.6-9.8zm.9 16.3c3 0 5.5-3.2 5.5-7.1v-5.7h-5.5c-2.9 0-4.9 2.5-4.9 6.3s1.9 6.5 4.9 6.5zm24.8 0c1.9 0 3.8-.4 5.4-1.5v4.2c-1.8.5-3.5.7-5.4.7-6.3 0-10.6-4-10.6-10s3.9-10 9.7-10c5.3 0 8.8 3.4 8.8 8.4v1.3c0 1.1-.6 1.7-1.7 1.7h-12.2c.6 3.4 2.6 5.2 6 5.2zm-3.7-8.3h7.7c0-3.3-1.7-5.1-4.9-5.1-3.3 0-5.1 2.4-5.1 6.8v.8l2.3-2.5zm25.8 4.8c2.2 1.6 6.4 3.4 9.1 3.4 3.6 0 6-1.5 6-3.7 0-2.3-2.6-3.8-6.2-5.1-4.4-1.6-9-3.9-9-8.6 0-4.6 3.7-7.1 10.6-7.1 2.5 0 5.5.7 7.4 1.8v4.6c-1.5-1.5-4.3-2.9-7.4-2.9-3.7 0-5.7 1.3-5.7 3.7 0 1.7 2 2.7 5.6 4 4.5 1.7 9.5 3.9 9.5 9.4 0 4.5-4.3 7.4-10.8 7.4-2.9 0-7.4-1.1-9.1-2.1v-4.8zm33.7 3.5c1.9 0 3.8-.4 5.4-1.5v4.2c-1.8.5-3.5.7-5.4.7-6.3 0-10.6-4-10.6-10s3.9-10 9.7-10c5.3 0 8.8 3.4 8.8 8.4v1.3c0 1.1-.6 1.7-1.7 1.7h-12.2c.5 3.4 2.6 5.2 6 5.2zm-3.7-8.3h7.7c0-3.3-1.7-5.1-4.9-5.1-3.3 0-5.1 2.4-5.1 6.8v.8l2.3-2.5zm23.4-8h4.1l2.3 3.2.6-3.2h4v21.1c0 6-4.3 10-10.8 10-1.8 0-4.2-.2-6-.6v-4.5c1.7 1.2 3.9 1.6 6 1.6 3.8 0 6.3-2.6 6.3-6.6V184c-1.5 2.5-3.8 4.1-6.4 4.1-5.2 0-8.7-4-8.7-10-.1-5.8 3.3-9.7 8.6-9.7zm.9 16.3c3 0 5.5-3.2 5.5-7.1v-5.7h-5.5c-2.9 0-4.9 2.5-4.9 6.3s2 6.5 4.9 6.5zm20-16.3v12.8c0 2.1 1.6 3.4 4 3.4 3.6 0 6.6-3.7 6.6-8.3v-8h4.6v19.4H532l-.3-4.5c-1.5 2.9-4.1 4.8-6.9 4.8-5 0-8.3-2.4-8.3-6v-13.7h4.6zm25.1 0l.2 4.4c1.6-2.8 4.3-4.7 7.3-4.7h1.9v4.9h-3.1c-3.6 0-6 2.2-6 5.4v9.4H542v-19.4h4.2zm21.4-.3c6 0 10 4 10 10s-4 10-10 10-10-4-10-10 4-10 10-10zm0 16.6c3.2 0 5.3-2.6 5.3-6.6 0-3.9-2.1-6.6-5.3-6.6s-5.3 2.6-5.3 6.6c0 3.9 2.1 6.6 5.3 6.6zm13.7-2.4c2.2 1.6 5 2.5 7.1 2.5 2.9 0 4.3-.8 4.3-2.2 0-1.3-1.7-2.1-4-2.7-3.4-.9-7.4-2-7.4-6.5 0-3.4 3.1-5.3 8.8-5.3 1.8 0 3.6.2 5.4.6v4.6c-1.6-1.1-3.5-1.9-5.7-1.9-2.8 0-4.3.6-4.3 1.8 0 1.2 1.9 2.1 4.2 2.7 3.4.9 7.2 2 7.2 6.1 0 3.9-3.2 6-9.1 6-2.1 0-4.7-.6-6.6-1.3v-4.4zm34.3-13.9l5.5 14.7 4.3-14.7h5.4l-8 19.9c-2.6 6.3-6.5 10.9-12.8 10.9v-4c4.5 0 7.4-3.6 9.3-7.6l-9-19.2h5.3zm29.4-8h16.5v3.7h-11.7v8.3h9.4v3.7h-9.4v11.7H645v-27.4zm20.8-1.4c0-.6.1-.6.6-.6h3.9v3.4c0 .6-.1.6-.6.6h-3.9V159zm4.6 9.4v14.2c0 2.3.2 5.4.2 5.4l-4.5-.2-.3-5v-14.3h4.6zm13 0h4.1l2.3 3.2.6-3.2h4v14.2c0 2.3.2 5.4.2 5.4l-4.2-.2-.2-4.2c-1.5 2.8-3.9 4.6-6.7 4.6-5.2 0-8.7-4-8.7-10-.1-5.9 3.4-9.8 8.6-9.8zm.9 16.3c3 0 5.5-3.1 5.5-6.8v-6h-5.5c-2.9 0-4.9 2.5-4.9 6.3s2 6.5 4.9 6.5zm15.8-16.3h4.3l.3 4.5c1.5-2.9 4.1-4.8 6.9-4.8 5 0 8.3 2.4 8.3 6v13.7h-4.6V175c0-2.1-1.6-3.4-4-3.4-3.6 0-6.6 3.7-6.6 8.3v8h-4.6v-19.5zm34.8 3.1H724v-3.1h18l-11.8 16.3h11.2v3.1h-18.3l11.8-16.3zm18.1-3.1h4.1l2.3 3.2.6-3.2h4v14.2c0 2.3.2 5.4.2 5.4l-4.2-.2-.2-4.2c-1.5 2.8-3.9 4.6-6.7 4.6-5.2 0-8.7-4-8.7-10-.1-5.9 3.4-9.8 8.6-9.8zm1 16.3c3 0 5.5-3.1 5.5-6.8v-6H754c-2.9 0-4.9 2.5-4.9 6.3-.1 3.8 1.9 6.5 4.9 6.5zm15.1-2.4c2.2 1.6 5 2.5 7.1 2.5 2.9 0 4.3-.8 4.3-2.2 0-1.3-1.7-2.1-4-2.7-3.4-.9-7.4-2-7.4-6.5 0-3.4 3.1-5.3 8.8-5.3 1.8 0 3.6.2 5.4.6v4.6c-1.6-1.1-3.5-1.9-5.7-1.9-2.8 0-4.3.6-4.3 1.8 0 1.2 1.9 2.1 4.2 2.7 3.4.9 7.2 2 7.2 6.1 0 3.9-3.2 6-9.1 6-2.1 0-4.7-.6-6.6-1.3v-4.4z" fill="none" stroke="#17234b" stroke-width=".5" stroke-miterlimit="10"/><path class="st0" d="M101.8 0c7.9 0 14.3 6.4 14.3 14.3s-6.4 14.2-14.3 14.2-14.3-6.4-14.3-14.2C87.5 6.4 93.9 0 101.8 0zm98.9 116.6l-80.4-80.4c-1.1-1.7-2.9-2.8-5-2.8-2.7 0-4.9 1.8-5.7 4.2l-.1.4c-.1.4-.2.9-.2 1.3 0 .5.2 4 .2 4v9l.4 82.4c.9 17.5-16.5 17.1-16.8 1.6l.5-83.9v-8.7s.3-3.7.3-4.3c0-3.3-2.7-6-6-6-2.4 0-4.5 1.5-5.4 3.5L2.8 116.6c-3.7 3.7-3.7 9.9 0 13.6L78.6 206c1.1 1.7 3.1 2.9 5.4 2.9 3.5 0 6.4-2.9 6.4-6.4 0-2-.9-3.8-2.4-5l-67.3-67.3c-3.7-3.7-3.7-9.9 0-13.6l61.9-61.9.5 86.5c-.7 21.2 35.7 25.2 38-.5l-.2-86.2 62 62c3.7 3.7 3.7 9.9 0 13.6l-67.3 67.3c-1.4 1.2-2.3 2.9-2.3 4.9 0 3.5 2.9 6.4 6.4 6.4 2.3 0 4.2-1.2 5.4-2.9l75.7-75.7c3.6-3.6 3.6-9.8-.1-13.5z"/></svg>