<svg xmlns="http://www.w3.org/2000/svg" width="1440" height="973" fill="none" viewBox="0 0 1440 973">
    <path fill="#333D29" d="M1439.5 785.603C825.987 1051.83 520.964 1010.26.5 811.762L0 0h1440l-.5 785.603z"/>
    <g opacity=".05">
        <mask id="c66t11fdva" width="1440" height="973" x="0" y="0" maskUnits="userSpaceOnUse">
            <path fill="#656D4A" d="M1439.5 785.603C825.987 1051.83 520.964 1010.26.5 811.762L0 0h1440l-.5 785.603z"/>
        </mask>
        <g mask="url(#c66t11fdva)">
            <path fill="#656D4A" d="M-72.374 137.777v54.977c5.069-11.046 10.413-21.971 16.175-32.715 16.078-29.977 36.272-57.605 54.446-86.431C12.92 50.34 27.377 20.024 25.421-8.076H1.411c-9.802 14.559-22.93 26.937-32.92 41.387-21.764 31.48-32.28 68.142-40.865 104.466zM194.293 137.777v54.977c5.068-11.046 10.412-21.971 16.175-32.715 16.077-29.977 36.272-57.605 54.447-86.431 14.672-23.268 29.128-53.584 27.173-81.684h-24.009c-9.803 14.559-22.931 26.937-32.922 41.387-21.764 31.48-32.278 68.142-40.864 104.466zM194.293 87.706c9.28-27.264 21.818-53.28 40.97-76.258 5.404-6.492 11.04-12.875 16.101-19.524h-33.917c-8.651 13.166-17.448 26.247-23.154 40.818v54.964zM201.672-8.076h-8.015c.198 3.864.423 7.727.699 11.591 2.371-3.888 4.835-7.752 7.316-11.591zM179.509-8.076h-8.014c2.481 3.84 4.945 7.703 7.316 11.591.276-3.864.501-7.727.698-11.591zM186.656 209.928h-.069l-.111.012.091.207.089-.219zM178.873 87.706V32.741c-5.704-14.57-14.5-27.651-23.152-40.817h-33.918c5.061 6.65 10.697 13.032 16.101 19.524 19.152 22.977 31.689 48.994 40.969 76.258zM82.98 17.723c4.83 23.11 17.385 43.906 30.327 63.758 9.526 14.607 19.38 29.032 28.792 43.7 14 21.838 25.984 44.548 36.774 67.828v-55.207c-4.761-20.143-10.08-40.188-17.55-59.604-6.975-18.12-16.028-35.573-27.936-51.282-9.016-11.894-19.942-22.662-28.295-34.992H81.398c-.786 8.636-.17 17.417 1.582 25.799zM349.647 17.723c4.829 23.11 17.385 43.906 30.327 63.758 9.526 14.607 19.38 29.032 28.792 43.7 14 21.838 25.984 44.548 36.774 67.828v-55.207c-4.761-20.143-10.08-40.188-17.55-59.604-6.974-18.12-16.028-35.573-27.936-51.282-9.016-11.894-19.942-22.662-28.295-34.992h-23.693c-.787 8.636-.171 17.417 1.581 25.799zM445.54 87.706V32.741c-5.704-14.57-14.5-27.651-23.152-40.817h-33.919c5.062 6.65 10.698 13.032 16.103 19.524 19.151 22.977 31.688 48.994 40.968 76.258zM446.176-8.076h-8.015c2.481 3.84 4.945 7.703 7.316 11.591.276-3.864.501-7.727.699-11.591zM468.339-8.076h-8.015c.198 3.864.423 7.727.699 11.591 2.371-3.888 4.835-7.752 7.316-11.591zM460.96 137.777v54.977c5.068-11.046 10.412-21.971 16.175-32.715 16.077-29.977 36.272-57.605 54.446-86.431 14.671-23.268 29.128-53.584 27.174-81.684h-24.01c-9.802 14.559-22.93 26.937-32.921 41.387-21.764 31.48-32.279 68.142-40.864 104.466zM453.323 209.928h-.07l-.11.012.09.207.09-.219zM460.96 87.706c9.28-27.264 21.817-53.28 40.968-76.258 5.405-6.492 11.041-12.875 16.103-19.524h-33.918c-8.65 13.166-17.448 26.247-23.153 40.818v54.964zM727.627 87.706c9.28-27.264 21.817-53.28 40.968-76.258C774 4.956 779.636-1.427 784.698-8.076H750.78c-8.65 13.166-17.448 26.247-23.153 40.818v54.964zM727.627 137.777v54.977c5.068-11.046 10.412-21.971 16.175-32.715 16.077-29.977 36.272-57.605 54.446-86.431 14.671-23.268 29.128-53.584 27.174-81.684h-24.01c-9.802 14.559-22.93 26.937-32.921 41.387-21.764 31.48-32.279 68.142-40.864 104.466zM735.005-8.076h-8.014c.197 3.864.422 7.727.698 11.591 2.371-3.888 4.835-7.752 7.316-11.591zM712.843-8.076h-8.015c2.481 3.84 4.945 7.703 7.316 11.591.276-3.864.501-7.727.699-11.591zM712.206 87.706V32.741c-5.704-14.57-14.5-27.651-23.152-40.817h-33.918c5.061 6.65 10.697 13.032 16.102 19.524 19.151 22.977 31.688 48.994 40.968 76.258zM719.99 209.928h-.07l-.11.012.09.207.09-.219zM616.313 17.723c4.83 23.11 17.386 43.906 30.327 63.758 9.527 14.607 19.38 29.032 28.792 43.7 14 21.838 25.984 44.548 36.775 67.828v-55.207c-4.762-20.143-10.08-40.188-17.551-59.604-6.973-18.12-16.028-35.573-27.936-51.282-9.016-11.894-19.941-22.662-28.295-34.992h-23.693c-.787 8.636-.171 17.417 1.581 25.799zM978.873 87.706V32.741c-5.704-14.57-14.5-27.651-23.152-40.817h-33.918c5.061 6.65 10.697 13.032 16.102 19.524 19.151 22.977 31.688 48.994 40.968 76.258zM979.509-8.076h-8.014c2.481 3.84 4.945 7.703 7.316 11.591.276-3.864.501-7.727.698-11.591zM986.656 209.928h-.069l-.111.012.091.207.089-.219zM882.98 17.723c4.829 23.11 17.385 43.906 30.326 63.758 9.527 14.607 19.381 29.032 28.793 43.7 14 21.838 25.983 44.548 36.774 67.828v-55.207c-4.761-20.143-10.08-40.188-17.55-59.604-6.974-18.12-16.028-35.573-27.936-51.282-9.016-11.894-19.942-22.662-28.295-34.992h-23.693c-.787 8.636-.171 17.417 1.581 25.799zM1001.67-8.076h-8.013c.198 3.864.423 7.727.699 11.591 2.371-3.888 4.835-7.752 7.314-11.591zM994.293 137.777v54.977c5.068-11.046 10.417-21.971 16.177-32.715 16.08-29.977 36.27-57.605 54.44-86.431 14.68-23.268 29.13-53.584 27.18-81.684h-24.01c-9.8 14.559-22.93 26.937-32.92 41.387-21.77 31.48-32.28 68.142-40.867 104.466zM994.293 87.706c9.277-27.264 21.817-53.28 40.967-76.258 5.41-6.492 11.04-12.875 16.1-19.524h-33.91c-8.65 13.166-17.451 26.247-23.157 40.818v54.964zM1260.96 137.777v54.977c5.07-11.046 10.41-21.971 16.17-32.715 16.08-29.977 36.28-57.605 54.46-86.431 14.66-23.268 29.12-53.584 27.17-81.684h-24.01c-9.8 14.559-22.94 26.937-32.92 41.387-21.76 31.48-32.28 68.142-40.87 104.466zM1149.65 17.723c4.83 23.11 17.38 43.906 30.32 63.758 9.53 14.607 19.38 29.032 28.8 43.7 14 21.838 25.98 44.548 36.77 67.828v-55.207c-4.76-20.143-10.08-40.188-17.55-59.604-6.97-18.12-16.03-35.573-27.94-51.282-9.01-11.894-19.94-22.662-28.29-34.992h-23.69c-.79 8.636-.18 17.417 1.58 25.799zM1268.33-8.076h-8.01c.2 3.864.43 7.727.71 11.591 2.36-3.888 4.82-7.752 7.3-11.591zM1246.18-8.076h-8.02c2.48 3.84 4.95 7.703 7.32 11.591.27-3.864.5-7.727.7-11.591zM1260.96 87.706c9.28-27.264 21.81-53.28 40.97-76.258 5.4-6.492 11.04-12.875 16.1-19.524h-33.91c-8.65 13.166-17.45 26.247-23.16 40.818v54.964zM1245.54 87.706V32.741c-5.7-14.57-14.5-27.651-23.15-40.817h-33.92c5.06 6.65 10.7 13.032 16.1 19.524 19.15 22.977 31.69 48.994 40.97 76.258zM1253.32 209.928h-.07l-.11.012.09.207.09-.219zM1416.32 17.723c4.83 23.11 17.37 43.906 30.32 63.758 9.52 14.607 19.39 29.032 28.79 43.7 14 21.838 25.98 44.548 36.78 67.828v-55.207c-4.77-20.143-10.09-40.188-17.56-59.604-6.97-18.12-16.02-35.573-27.93-51.282-9.01-11.894-19.95-22.662-28.29-34.992h-23.7c-.78 8.636-.17 17.417 1.59 25.799zM-44.439 469.063c-10.059 15.702-21.172 30.882-27.935 48.161v54.969c9.281-27.263 21.818-53.288 40.97-76.267 15.107-18.128 32.057-35.514 33.09-59.824.87-20.455-7.88-39.301-21.447-54.681.978 13.052.074 26.245-2.843 39.174-3.931 17.428-12.117 33.299-21.835 48.468zM14.299 444.535c-1.518 9.629-4.893 18.967-10.188 27.684-9.976 16.425-24.684 29.751-35.62 45.569-21.764 31.48-32.28 68.15-40.865 104.478v54.976c5.069-11.046 10.413-21.978 16.175-32.719 16.078-29.974 36.272-57.6 54.446-86.428C18.75 525.573 38.85 479.294 14.3 444.535zM194.837 405.035c-1.649 23.168-.708 46.54-1.266 69.766.214 4.404.47 8.805.785 13.201 12.82-21.075 28.331-40.872 35.027-64.651 7.793-27.679 4.928-57.3-6.832-83.519-5.3 22.685-17.575 44.263-27.714 65.203zM186.587 694.407l-.111.012.091.207.089-.212-.069-.007zM270.777 472.219c-9.976 16.425-24.682 29.751-35.62 45.569-21.764 31.48-32.278 68.15-40.864 104.478v54.976c5.068-11.046 10.412-21.978 16.175-32.719 16.077-29.974 36.272-57.6 54.447-86.428 20.502-32.522 40.602-78.801 16.05-113.56-1.517 9.629-4.893 18.967-10.188 27.684zM194.293 517.224v54.969c9.28-27.263 21.818-53.288 40.97-76.267 15.108-18.128 32.057-35.514 33.09-59.824.871-20.455-7.88-39.301-21.446-54.681.976 13.052.073 26.245-2.844 39.174-3.931 17.428-12.118 33.299-21.835 48.468-10.06 15.702-21.172 30.882-27.935 48.161zM211.58 319.79c.524-25.534-11.636-48.811-24.996-70.485-13.361 21.674-25.521 44.951-24.997 70.485.516 25.092 13.538 48.978 24.997 71.751 11.457-22.773 24.48-46.661 24.996-71.751zM92.195 444.748c-11.282 16.74-13.246 38.17-9.215 57.458 4.83 23.114 17.385 43.908 30.327 63.758 9.526 14.61 19.38 29.03 28.792 43.705 14 21.831 25.984 44.547 36.774 67.823v-55.213c-4.761-20.133-10.08-40.188-17.55-59.595-6.975-18.118-16.028-35.572-27.936-51.285-11.523-15.203-26.186-28.545-34.582-45.702-3.364-6.876-5.513-13.9-6.61-20.949zM179.596 474.801c-.559-23.226.383-46.598-1.267-69.766-10.14-20.942-22.413-42.518-27.713-65.203-11.76 26.219-14.625 55.84-6.832 83.519 6.696 23.779 22.207 43.576 35.027 64.651.314-4.396.57-8.797.785-13.201zM104.813 436.102c1.035 24.31 17.983 41.696 33.091 59.824 19.152 22.979 31.689 49.004 40.969 76.267v-54.969c-6.762-17.279-17.872-32.462-27.934-48.161-9.719-15.167-17.904-31.042-21.835-48.468-2.917-12.929-3.821-26.122-2.844-39.174-13.565 15.38-22.316 34.226-21.447 54.681zM453.253 694.407l-.11.012.09.207.09-.212-.07-.007zM478.247 319.79c.524-25.534-11.637-48.811-24.997-70.485-13.361 21.674-25.521 44.951-24.997 70.485.516 25.092 13.539 48.978 24.997 71.751 11.458-22.773 24.481-46.661 24.997-71.751zM461.504 405.035c-1.649 23.168-.708 46.54-1.267 69.766.214 4.404.471 8.805.786 13.201 12.82-21.075 28.33-40.872 35.026-64.651 7.794-27.679 4.928-57.3-6.832-83.519-5.3 22.685-17.574 44.263-27.713 65.203zM358.862 444.748c-11.282 16.74-13.246 38.17-9.215 57.458 4.829 23.114 17.385 43.908 30.327 63.758 9.526 14.61 19.38 29.03 28.792 43.705 14 21.831 25.984 44.547 36.774 67.823v-55.213c-4.761-20.133-10.08-40.188-17.55-59.595-6.974-18.118-16.028-35.572-27.936-51.285-11.523-15.203-26.186-28.545-34.582-45.702-3.364-6.876-5.513-13.9-6.61-20.949zM446.262 474.801c-.558-23.226.383-46.598-1.266-69.766-10.14-20.942-22.413-42.518-27.713-65.203-11.76 26.219-14.626 55.84-6.833 83.519 6.696 23.779 22.207 43.576 35.027 64.651.315-4.396.572-8.797.785-13.201zM460.96 517.224v54.969c9.28-27.263 21.817-53.288 40.968-76.267 15.109-18.128 32.057-35.514 33.092-59.824.869-20.455-7.881-39.301-21.447-54.681.976 13.052.074 26.245-2.844 39.174-3.93 17.428-12.117 33.299-21.834 48.468-10.06 15.702-21.172 30.882-27.935 48.161zM371.48 436.102c1.035 24.31 17.983 41.696 33.092 59.824 19.151 22.979 31.688 49.004 40.968 76.267v-54.969c-6.762-17.279-17.872-32.462-27.934-48.161-9.719-15.167-17.906-31.042-21.835-48.468-2.916-12.929-3.821-26.122-2.844-39.174-13.565 15.38-22.316 34.226-21.447 54.681zM537.444 472.219c-9.975 16.425-24.684 29.751-35.62 45.569-21.764 31.48-32.279 68.15-40.864 104.478v54.976c5.068-11.046 10.412-21.978 16.175-32.719 16.077-29.974 36.272-57.6 54.446-86.428 20.503-32.522 40.603-78.801 16.051-113.56-1.517 9.629-4.893 18.967-10.188 27.684zM638.147 436.102c1.034 24.31 17.982 41.696 33.092 59.824 19.15 22.979 31.688 49.004 40.968 76.267v-54.969c-6.763-17.279-17.872-32.462-27.935-48.161-9.719-15.167-17.905-31.042-21.835-48.468-2.916-12.929-3.821-26.122-2.844-39.174-13.565 15.38-22.316 34.226-21.446 54.681zM719.92 694.407l-.11.012.09.207.09-.212-.07-.007zM712.93 474.801c-.559-23.226.382-46.598-1.267-69.766-10.14-20.942-22.413-42.518-27.713-65.203-11.76 26.219-14.626 55.84-6.833 83.519 6.696 23.779 22.207 43.576 35.027 64.651.315-4.396.572-8.797.786-13.201zM625.528 444.748c-11.281 16.74-13.245 38.17-9.215 57.458 4.83 23.114 17.386 43.908 30.327 63.758 9.527 14.61 19.38 29.03 28.792 43.705 14 21.831 25.984 44.547 36.775 67.823v-55.213c-4.762-20.133-10.08-40.188-17.551-59.595-6.973-18.118-16.028-35.572-27.936-51.285-11.523-15.203-26.185-28.545-34.581-45.702-3.364-6.876-5.514-13.9-6.611-20.949zM728.17 405.035c-1.649 23.168-.708 46.54-1.266 69.766.213 4.404.47 8.805.785 13.201 12.82-21.075 28.331-40.872 35.027-64.651 7.793-27.679 4.928-57.3-6.832-83.519-5.3 22.685-17.575 44.263-27.714 65.203zM804.111 472.219c-9.975 16.425-24.684 29.751-35.62 45.569-21.764 31.48-32.279 68.15-40.864 104.478v54.976c5.068-11.046 10.412-21.978 16.175-32.719 16.077-29.974 36.272-57.6 54.446-86.428 20.503-32.522 40.603-78.801 16.051-113.56-1.517 9.629-4.893 18.967-10.188 27.684zM727.627 517.224v54.969c9.28-27.263 21.817-53.288 40.968-76.267 15.109-18.128 32.057-35.514 33.092-59.824.869-20.455-7.881-39.301-21.447-54.681.976 13.052.074 26.245-2.844 39.174-3.93 17.428-12.117 33.299-21.834 48.468-10.06 15.702-21.172 30.882-27.935 48.161zM744.914 319.79c.524-25.534-11.637-48.811-24.997-70.485-13.361 21.674-25.521 44.951-24.997 70.485.516 25.092 13.539 48.978 24.997 71.751 11.458-22.773 24.481-46.661 24.997-71.751zM1070.78 472.219c-9.98 16.425-24.69 29.751-35.62 45.569-21.77 31.48-32.28 68.15-40.867 104.478v54.976c5.068-11.046 10.417-21.978 16.177-32.719 16.08-29.974 36.27-57.6 54.44-86.428 20.51-32.522 40.61-78.801 16.06-113.56-1.52 9.629-4.9 18.967-10.19 27.684zM986.587 694.407l-.111.012.091.207.089-.212-.069-.007zM979.596 474.801c-.559-23.226.383-46.598-1.267-69.766-10.14-20.942-22.413-42.518-27.713-65.203-11.76 26.219-14.625 55.84-6.832 83.519 6.696 23.779 22.207 43.576 35.027 64.651.314-4.396.572-8.797.785-13.201zM994.293 517.224v54.969c9.277-27.263 21.817-53.288 40.967-76.267 15.11-18.128 32.06-35.514 33.09-59.824.87-20.455-7.88-39.301-21.44-54.681.97 13.052.07 26.245-2.85 39.174-3.93 17.428-12.11 33.299-21.83 48.468-10.06 15.702-21.17 30.882-27.937 48.161zM904.813 436.102c1.035 24.31 17.983 41.696 33.092 59.824 19.151 22.979 31.688 49.004 40.968 76.267v-54.969c-6.762-17.279-17.872-32.462-27.934-48.161-9.719-15.167-17.906-31.042-21.835-48.468-2.916-12.929-3.821-26.122-2.844-39.174-13.565 15.38-22.316 34.226-21.447 54.681zM994.837 405.035c-1.649 23.168-.708 46.54-1.267 69.766.214 4.404.471 8.805.786 13.201 12.824-21.075 28.334-40.872 35.024-64.651 7.8-27.679 4.93-57.3-6.83-83.519-5.3 22.685-17.57 44.263-27.713 65.203zM892.195 444.748c-11.282 16.74-13.246 38.17-9.215 57.458 4.829 23.114 17.385 43.908 30.327 63.758 9.526 14.61 19.38 29.03 28.792 43.705 14 21.831 25.984 44.547 36.774 67.823v-55.213c-4.761-20.133-10.08-40.188-17.55-59.595-6.974-18.118-16.028-35.572-27.936-51.285-11.523-15.203-26.186-28.545-34.582-45.702-3.364-6.876-5.513-13.9-6.61-20.949zM1011.58 319.79c.52-25.534-11.636-48.811-24.996-70.485-13.361 21.674-25.521 44.951-24.997 70.485.516 25.092 13.538 48.978 24.997 71.751 11.457-22.773 24.476-46.661 24.996-71.751zM1171.48 436.102c1.03 24.31 17.98 41.696 33.09 59.824 19.15 22.979 31.69 49.004 40.97 76.267v-54.969c-6.76-17.279-17.87-32.462-27.93-48.161-9.72-15.167-17.91-31.042-21.84-48.468-2.92-12.929-3.82-26.122-2.84-39.174-13.57 15.38-22.32 34.226-21.45 54.681zM1158.86 444.748c-11.28 16.74-13.24 38.17-9.21 57.458 4.83 23.114 17.38 43.908 30.32 63.758 9.53 14.61 19.38 29.03 28.8 43.705 14 21.831 25.98 44.547 36.77 67.823v-55.213c-4.76-20.133-10.08-40.188-17.55-59.595-6.97-18.118-16.03-35.572-27.94-51.285-11.52-15.203-26.18-28.545-34.58-45.702-3.36-6.876-5.51-13.9-6.61-20.949zM1246.26 474.801c-.56-23.226.39-46.598-1.26-69.766-10.14-20.942-22.42-42.518-27.72-65.203-11.76 26.219-14.62 55.84-6.83 83.519 6.7 23.779 22.21 43.576 35.03 64.651.31-4.396.57-8.797.78-13.201zM1260.96 517.224v54.969c9.28-27.263 21.81-53.288 40.97-76.267 15.11-18.128 32.06-35.514 33.1-59.824.86-20.455-7.9-39.301-21.46-54.681.98 13.052.07 26.245-2.84 39.174-3.93 17.428-12.12 33.299-21.84 48.468-10.05 15.702-21.17 30.882-27.93 48.161zM1253.25 694.407l-.11.012.09.207.09-.212-.07-.007zM1278.24 319.79c.53-25.534-11.63-48.811-24.99-70.485-13.36 21.674-25.52 44.951-25 70.485.52 25.092 13.54 48.978 25 71.751 11.46-22.773 24.48-46.661 24.99-71.751zM1261.51 405.035c-1.66 23.168-.71 46.54-1.27 69.766.21 4.404.47 8.805.79 13.201 12.81-21.075 28.33-40.872 35.02-64.651 7.79-27.679 4.92-57.3-6.84-83.519-5.29 22.685-17.57 44.263-27.7 65.203zM1337.44 472.219c-9.97 16.425-24.68 29.751-35.61 45.569-21.76 31.48-32.28 68.15-40.87 104.478v54.976c5.07-11.046 10.41-21.978 16.17-32.719 16.08-29.974 36.28-57.6 54.46-86.428 20.49-32.522 40.6-78.801 16.04-113.56-1.51 9.629-4.9 18.967-10.19 27.684zM1466.72 511.399c-11.52-15.203-26.19-28.545-34.59-45.702-3.36-6.876-5.5-13.9-6.6-20.949-11.28 16.74-13.25 38.17-9.21 57.458 4.83 23.114 17.37 43.908 30.32 63.758 9.52 14.61 19.39 29.03 28.79 43.705 14 21.831 25.98 44.547 36.78 67.823v-55.213c-4.77-20.133-10.09-40.188-17.56-59.595-6.97-18.118-16.02-35.572-27.93-51.285zM1462.44 420.595c-2.92-12.929-3.83-26.122-2.84-39.174-13.57 15.38-22.32 34.226-21.45 54.681 1.04 24.31 17.98 41.696 33.09 59.824 19.15 22.979 31.68 49.004 40.97 76.267v-54.969c-6.77-17.279-17.88-32.462-27.94-48.161-9.72-15.167-17.9-31.042-21.83-48.468zM1386.75 500.646l.1-.012-.08-.207-.09.212.07.007zM1292.37 750.519c1.51-9.629 4.9-18.967 10.19-27.684 9.97-16.425 24.68-29.751 35.61-45.569 21.76-31.48 32.28-68.15 40.87-104.478v-54.976c-5.07 11.046-10.41 21.978-16.17 32.719-16.08 29.974-36.28 57.6-54.46 86.428-20.49 32.522-40.6 78.801-16.04 113.56zM1468.52 758.952c-1.04-24.311-17.99-41.696-33.09-59.824-19.15-22.979-31.68-49.004-40.96-76.268v54.97c6.76 17.279 17.86 32.461 27.93 48.161 9.72 15.167 17.89 31.042 21.83 48.468 2.92 12.929 3.82 26.122 2.84 39.174 13.57-15.38 22.32-34.227 21.45-54.681zM1481.13 750.306c11.28-16.74 13.26-38.17 9.22-57.458-4.83-23.114-17.38-43.908-30.32-63.758-9.52-14.61-19.39-29.03-28.79-43.705-14-21.831-25.99-44.547-36.77-67.823v55.214c4.76 20.131 10.08 40.187 17.54 59.594 6.98 18.118 16.03 35.572 27.94 51.285 11.52 15.203 26.18 28.545 34.58 45.702 3.36 6.876 5.51 13.9 6.6 20.949zM1379.04 677.83v-54.97c-9.28 27.264-21.81 53.289-40.97 76.268-15.11 18.128-32.06 35.513-33.08 59.824-.88 20.454 7.88 39.301 21.44 54.681-.98-13.052-.07-26.245 2.84-39.174 3.93-17.428 12.12-33.299 21.84-48.468 10.05-15.702 21.17-30.882 27.93-48.161zM1386.75 803.513c-11.46 22.773-24.48 46.661-24.99 71.751-.53 25.534 11.63 48.811 24.99 70.485 13.36-21.674 25.52-44.951 25-70.485-.52-25.092-13.54-48.978-25-71.751zM1429.55 771.703c-6.7-23.779-22.2-43.577-35.03-64.651-.31 4.396-.57 8.797-.79 13.2.56 23.227-.37 46.599 1.27 69.767 10.15 20.942 22.41 42.518 27.72 65.203 11.76-26.219 14.63-55.84 6.83-83.519zM1379.76 720.252c-.21-4.403-.47-8.804-.79-13.2-12.81 21.074-28.33 40.872-35.02 64.651-7.79 27.679-4.92 57.3 6.84 83.519 5.29-22.685 17.57-44.264 27.7-65.203 1.66-23.168.71-46.54 1.27-69.767zM1120.08 803.513c-11.45 22.773-24.48 46.661-24.99 71.751-.53 25.534 11.63 48.811 24.99 70.485 13.36-21.674 25.52-44.951 25-70.485-.52-25.092-13.54-48.978-25-71.751zM1162.88 771.703c-6.69-23.779-22.2-43.577-35.02-64.651-.32 4.396-.57 8.797-.79 13.2.56 23.227-.38 46.599 1.27 69.767 10.14 20.942 22.41 42.518 27.71 65.203 11.76-26.219 14.63-55.84 6.83-83.519zM1201.85 758.952c-1.03-24.311-17.98-41.696-33.09-59.824-19.15-22.979-31.69-49.004-40.97-76.268v54.97c6.77 17.279 17.88 32.461 27.94 48.161 9.72 15.167 17.9 31.042 21.83 48.468 2.92 12.929 3.82 26.122 2.85 39.174 13.56-15.38 22.31-34.227 21.44-54.681zM1120.08 500.646l.11-.012-.09-.207-.09.212.07.007zM1127.79 572.776c4.76 20.131 10.08 40.187 17.55 59.594 6.98 18.118 16.03 35.572 27.94 51.285 11.52 15.203 26.19 28.545 34.58 45.702 3.37 6.876 5.51 13.9 6.61 20.949 11.28-16.74 13.25-38.17 9.22-57.458-4.83-23.114-17.39-43.908-30.33-63.758-9.53-14.61-19.38-29.03-28.79-43.705-14-21.831-25.99-44.547-36.78-67.823v55.214zM1113.1 720.252c-.22-4.403-.47-8.804-.79-13.2-12.82 21.074-28.33 40.872-35.03 64.651-7.79 27.679-4.92 57.3 6.84 83.519 5.3-22.685 17.57-44.264 27.71-65.203 1.65-23.168.71-46.54 1.27-69.767zM1112.37 677.83v-54.97c-9.28 27.264-21.81 53.289-40.96 76.268-15.11 18.128-32.06 35.513-33.1 59.824-.87 20.454 7.88 39.301 21.45 54.681-.98-13.052-.07-26.245 2.84-39.174 3.93-17.428 12.12-33.299 21.84-48.468 10.06-15.702 21.17-30.882 27.93-48.161zM1025.7 750.519c1.52-9.629 4.89-18.967 10.19-27.684 9.98-16.425 24.68-29.751 35.62-45.569 21.76-31.48 32.28-68.15 40.86-104.478v-54.976c-5.06 11.046-10.41 21.978-16.17 32.719-16.08 29.974-36.27 57.6-54.45 86.428-20.5 32.522-40.6 78.801-16.05 113.56zM853.413 500.646l.111-.012-.09-.207-.09.212.069.007zM861.127 572.776c4.761 20.131 10.08 40.187 17.551 59.594 6.973 18.118 16.028 35.572 27.936 51.285 11.524 15.203 26.185 28.545 34.581 45.702 3.364 6.876 5.513 13.9 6.611 20.949 11.281-16.74 13.245-38.17 9.214-57.458-4.829-23.114-17.385-43.908-30.326-63.758-9.527-14.61-19.38-29.03-28.792-43.705-14-21.831-25.984-44.547-36.775-67.823v55.214zM935.187 758.952c-1.035-24.311-17.983-41.696-33.092-59.824-19.151-22.979-31.688-49.004-40.968-76.268v54.97c6.763 17.279 17.872 32.461 27.935 48.161 9.718 15.167 17.905 31.042 21.834 48.468 2.918 12.929 3.822 26.122 2.844 39.174 13.566-15.38 22.316-34.227 21.447-54.681zM853.417 803.513c-11.458 22.773-24.481 46.661-24.997 71.751-.524 25.534 11.636 48.811 24.997 70.485 13.36-21.674 25.521-44.951 24.997-70.485-.516-25.092-13.539-48.978-24.997-71.751zM896.216 771.703c-6.696-23.779-22.207-43.577-35.027-64.651-.315 4.396-.571 8.797-.785 13.2.558 23.227-.383 46.599 1.266 69.767 10.14 20.942 22.414 42.518 27.714 65.203 11.76-26.219 14.625-55.84 6.832-83.519zM759.035 750.519c1.517-9.629 4.893-18.967 10.188-27.684 9.976-16.425 24.684-29.751 35.62-45.569 21.764-31.48 32.278-68.15 40.864-104.478v-54.976c-5.068 11.046-10.412 21.978-16.175 32.719-16.077 29.974-36.272 57.6-54.447 86.428-20.502 32.522-40.602 78.801-16.05 113.56zM846.43 720.252c-.214-4.403-.471-8.804-.786-13.2-12.819 21.074-28.331 40.872-35.027 64.651-7.793 27.679-4.927 57.3 6.833 83.519 5.301-22.685 17.574-44.264 27.713-65.203 1.649-23.168.708-46.54 1.267-69.767zM845.707 677.83v-54.97c-9.28 27.264-21.818 53.289-40.968 76.268-15.11 18.128-32.058 35.513-33.092 59.824-.87 20.454 7.881 39.301 21.446 54.681-.976-13.052-.072-26.245 2.844-39.174 3.931-17.428 12.118-33.299 21.835-48.468 10.06-15.702 21.172-30.882 27.935-48.161zM579.763 720.252c-.214-4.403-.471-8.804-.786-13.2-12.818 21.074-28.331 40.872-35.027 64.651-7.793 27.679-4.927 57.3 6.833 83.519 5.301-22.685 17.574-44.264 27.713-65.203 1.649-23.168.708-46.54 1.267-69.767zM594.46 572.776c4.761 20.131 10.08 40.187 17.551 59.594 6.973 18.118 16.028 35.572 27.936 51.285 11.524 15.203 26.185 28.545 34.581 45.702 3.364 6.876 5.513 13.9 6.611 20.949 11.281-16.74 13.245-38.17 9.214-57.458-4.829-23.114-17.385-43.908-30.326-63.758-9.527-14.61-19.38-29.03-28.792-43.705-14-21.831-25.984-44.547-36.775-67.823v55.214zM668.52 758.952c-1.035-24.311-17.983-41.696-33.092-59.824-19.151-22.979-31.688-49.004-40.968-76.268v54.97c6.763 17.279 17.872 32.461 27.935 48.161 9.718 15.167 17.905 31.042 21.834 48.468 2.918 12.929 3.822 26.122 2.844 39.174 13.566-15.38 22.316-34.227 21.447-54.681zM629.549 771.703c-6.696-23.779-22.206-43.577-35.026-64.651-.315 4.396-.571 8.797-.786 13.2.559 23.227-.382 46.599 1.267 69.767 10.14 20.942 22.413 42.518 27.713 65.203 11.76-26.219 14.626-55.84 6.832-83.519zM586.75 803.513c-11.458 22.773-24.481 46.661-24.997 71.751-.524 25.534 11.636 48.811 24.997 70.485 13.361-21.674 25.521-44.951 24.997-70.485-.516-25.092-13.539-48.978-24.997-71.751zM586.747 500.646l.11-.012-.089-.207-.091.212.07.007zM492.368 750.519c1.517-9.629 4.893-18.967 10.188-27.684 9.976-16.425 24.684-29.751 35.62-45.569 21.764-31.48 32.278-68.15 40.864-104.478v-54.976c-5.068 11.046-10.412 21.978-16.175 32.719-16.077 29.974-36.272 57.6-54.447 86.428-20.502 32.522-40.602 78.801-16.05 113.56zM579.04 677.83v-54.97c-9.28 27.264-21.817 53.289-40.968 76.268-15.109 18.128-32.057 35.513-33.092 59.824-.869 20.454 7.882 39.301 21.447 54.681-.976-13.052-.072-26.245 2.844-39.174 3.931-17.428 12.117-33.299 21.835-48.468 10.06-15.702 21.172-30.882 27.934-48.161zM320.08 500.646l.111-.012-.091-.207-.089.212.069.007zM401.853 758.952c-1.034-24.311-17.982-41.696-33.092-59.824-19.15-22.979-31.688-49.004-40.968-76.268v54.97c6.763 17.279 17.872 32.461 27.935 48.161 9.719 15.167 17.905 31.042 21.835 48.468 2.917 12.929 3.821 26.122 2.844 39.174 13.565-15.38 22.316-34.227 21.446-54.681zM327.793 572.776c4.762 20.131 10.08 40.187 17.551 59.594 6.973 18.118 16.028 35.572 27.936 51.285 11.524 15.203 26.185 28.545 34.581 45.702 3.364 6.876 5.514 13.9 6.611 20.949 11.281-16.74 13.245-38.17 9.215-57.458-4.83-23.114-17.386-43.908-30.327-63.758-9.527-14.61-19.38-29.03-28.792-43.705-14-21.831-25.984-44.547-36.775-67.823v55.214zM320.084 803.513c-11.459 22.773-24.481 46.661-24.997 71.751-.524 25.534 11.636 48.811 24.997 70.485 13.36-21.674 25.52-44.951 24.996-70.485-.516-25.092-13.539-48.978-24.996-71.751zM312.373 677.83v-54.97c-9.28 27.264-21.817 53.289-40.968 76.268-15.109 18.128-32.057 35.513-33.092 59.824-.869 20.454 7.882 39.301 21.447 54.681-.976-13.052-.073-26.245 2.844-39.174 3.931-17.428 12.117-33.299 21.835-48.468 10.06-15.702 21.172-30.882 27.934-48.161zM362.883 771.703c-6.696-23.779-22.207-43.577-35.027-64.651-.315 4.396-.571 8.797-.785 13.2.558 23.227-.383 46.599 1.266 69.767 10.14 20.942 22.414 42.518 27.714 65.203 11.76-26.219 14.625-55.84 6.832-83.519zM313.096 720.252c-.213-4.403-.471-8.804-.785-13.2-12.82 21.074-28.331 40.872-35.027 64.651-7.793 27.679-4.928 57.3 6.832 83.519 5.301-22.685 17.575-44.264 27.713-65.203 1.65-23.168.708-46.54 1.267-69.767zM225.701 750.519c1.518-9.629 4.894-18.967 10.188-27.684 9.976-16.425 24.684-29.751 35.62-45.569 21.764-31.48 32.279-68.15 40.864-104.478v-54.976c-5.068 11.046-10.412 21.978-16.174 32.719-16.078 29.974-36.272 57.6-54.447 86.428-20.503 32.522-40.603 78.801-16.051 113.56zM53.417 803.513c-11.458 22.773-24.482 46.661-24.997 71.751-.524 25.534 11.636 48.811 24.997 70.485 13.36-21.674 25.52-44.951 24.996-70.485-.516-25.092-13.538-48.978-24.996-71.751zM61.127 572.776c4.76 20.131 10.08 40.187 17.55 59.594 6.975 18.118 16.028 35.572 27.937 51.285 11.522 15.203 26.184 28.545 34.58 45.702 3.364 6.876 5.514 13.9 6.611 20.949 11.281-16.74 13.245-38.17 9.215-57.458-4.83-23.114-17.386-43.908-30.327-63.758-9.527-14.61-19.38-29.03-28.792-43.705-14-21.831-25.984-44.547-36.774-67.823v55.214zM53.413 500.646l.11-.012-.09-.207-.09.212.07.007zM96.216 771.703c-6.696-23.779-22.207-43.577-35.027-64.651-.315 4.396-.57 8.797-.785 13.2.558 23.227-.383 46.599 1.266 69.767 10.14 20.942 22.414 42.518 27.714 65.203 11.76-26.219 14.625-55.84 6.832-83.519zM45.163 790.019c1.649-23.168.707-46.54 1.266-69.767-.214-4.403-.47-8.804-.784-13.2-12.82 21.074-28.332 40.872-35.027 64.651-7.794 27.679-4.93 57.3 6.831 83.519 5.301-22.685 17.575-44.264 27.714-65.203zM-40.966 750.519c1.519-9.629 4.894-18.967 10.188-27.684 9.976-16.425 24.684-29.751 35.62-45.569 21.764-31.48 32.28-68.15 40.865-104.478v-54.976c-5.069 11.046-10.413 21.978-16.175 32.719-16.077 29.974-36.272 57.6-54.446 86.428-20.503 32.522-40.603 78.801-16.052 113.56zM45.707 677.83v-54.97c-9.28 27.264-21.817 53.289-40.969 76.268-15.108 18.128-32.057 35.513-33.091 59.824-.87 20.454 7.88 39.301 21.447 54.681-.977-13.052-.074-26.245 2.843-39.174 3.931-17.428 12.117-33.299 21.835-48.468 10.06-15.702 21.172-30.882 27.935-48.161zM135.186 758.952c-1.033-24.311-17.982-41.696-33.09-59.824-19.152-22.979-31.69-49.004-40.97-76.268v54.97C67.89 695.109 79 710.291 89.061 725.991c9.719 15.167 17.904 31.042 21.835 48.468 2.917 12.929 3.821 26.122 2.844 39.174 13.566-15.38 22.317-34.227 21.446-54.681zM14.299 929.017c-1.518 9.629-4.893 18.968-10.188 27.685-9.976 16.425-24.684 29.75-35.62 45.568-21.764 31.48-32.28 68.15-40.865 104.48v54.97c5.069-11.04 10.413-21.97 16.175-32.71 16.078-29.98 36.272-57.6 54.446-86.43C18.75 1010.06 38.85 963.776 14.3 929.017zM-44.439 953.545c-10.059 15.702-21.172 30.882-27.935 48.165v54.97c9.281-27.27 21.818-53.29 40.97-76.271 15.107-18.128 32.057-35.514 33.09-59.824.87-20.455-7.88-39.301-21.447-54.681.978 13.052.074 26.244-2.843 39.174-3.931 17.428-12.117 33.298-21.835 48.467zM264.915 1042.58c20.502-32.52 40.602-78.804 16.05-113.563-1.517 9.629-4.893 18.968-10.188 27.685-9.976 16.425-24.682 29.75-35.62 45.568-21.764 31.48-32.278 68.15-40.864 104.48v54.97c5.068-11.04 10.412-21.97 16.175-32.71 16.077-29.98 36.272-57.6 54.447-86.43zM113.307 1050.45c9.526 14.61 19.38 29.03 28.792 43.7 14 21.83 25.984 44.55 36.774 67.82v-55.21c-4.761-20.13-10.08-40.19-17.55-59.59-6.975-18.12-16.028-35.58-27.936-51.288-11.523-15.203-26.186-28.546-34.582-45.703-3.364-6.876-5.513-13.899-6.61-20.949-11.282 16.741-13.246 38.17-9.215 57.459 4.83 23.111 17.385 43.911 30.327 63.761zM186.584 733.788c-13.361 21.673-25.521 44.95-24.997 70.484.516 25.092 13.538 48.978 24.997 71.751 11.457-22.773 24.48-46.66 24.996-71.751.524-25.534-11.636-48.811-24.996-70.484zM178.329 889.517c-10.14-20.941-22.413-42.518-27.713-65.203-11.76 26.219-14.625 55.841-6.832 83.519 6.696 23.78 22.207 43.577 35.027 64.652.314-4.397.57-8.797.785-13.201-.559-23.226.383-46.599-1.267-69.767zM229.383 907.833c7.793-27.678 4.928-57.3-6.832-83.519-5.3 22.685-17.575 44.264-27.714 65.203-1.649 23.168-.708 46.541-1.266 69.767.214 4.404.47 8.804.785 13.201 12.82-21.075 28.331-40.872 35.027-64.652zM222.228 953.545c-10.06 15.702-21.172 30.882-27.935 48.165v54.97c9.28-27.27 21.818-53.29 40.97-76.271 15.108-18.128 32.057-35.514 33.09-59.824.871-20.455-7.88-39.301-21.446-54.681.976 13.052.073 26.244-2.844 39.174-3.931 17.428-12.118 33.298-21.835 48.467zM178.873 1001.71c-6.762-17.283-17.872-32.465-27.934-48.165-9.719-15.166-17.904-31.042-21.835-48.467-2.917-12.93-3.821-26.122-2.844-39.174-13.565 15.38-22.316 34.226-21.447 54.681 1.035 24.31 17.983 41.696 33.091 59.824 19.152 22.981 31.689 49.001 40.969 76.271v-54.97zM445.54 1001.71c-6.762-17.283-17.872-32.465-27.934-48.165-9.719-15.166-17.906-31.042-21.835-48.467-2.916-12.93-3.821-26.122-2.844-39.174-13.565 15.38-22.316 34.226-21.447 54.681 1.035 24.31 17.983 41.696 33.092 59.824 19.151 22.981 31.688 49.001 40.968 76.271v-54.97zM379.974 1050.45c9.526 14.61 19.38 29.03 28.792 43.7 14 21.83 25.984 44.55 36.774 67.82v-55.21c-4.761-20.13-10.08-40.19-17.55-59.59-6.974-18.12-16.028-35.58-27.936-51.288-11.523-15.203-26.186-28.546-34.582-45.703-3.364-6.876-5.513-13.899-6.61-20.949-11.282 16.741-13.246 38.17-9.215 57.459 4.829 23.111 17.385 43.911 30.327 63.761zM453.25 733.788c-13.361 21.673-25.521 44.95-24.997 70.484.516 25.092 13.539 48.978 24.997 71.751 11.458-22.773 24.481-46.66 24.997-71.751.524-25.534-11.637-48.811-24.997-70.484zM531.581 1042.58c20.503-32.52 40.603-78.804 16.051-113.563-1.517 9.629-4.893 18.968-10.188 27.685-9.975 16.425-24.684 29.75-35.62 45.568-21.764 31.48-32.279 68.15-40.864 104.48v54.97c5.068-11.04 10.412-21.97 16.175-32.71 16.077-29.98 36.272-57.6 54.446-86.43zM488.895 953.545c-10.06 15.702-21.172 30.882-27.935 48.165v54.97c9.28-27.27 21.817-53.29 40.968-76.271 15.109-18.128 32.057-35.514 33.092-59.824.869-20.455-7.881-39.301-21.447-54.681.976 13.052.074 26.244-2.844 39.174-3.93 17.428-12.117 33.298-21.834 48.467zM496.049 907.833c7.794-27.678 4.928-57.3-6.832-83.519-5.3 22.685-17.574 44.264-27.713 65.203-1.649 23.168-.708 46.541-1.267 69.767.214 4.404.471 8.804.786 13.201 12.82-21.075 28.33-40.872 35.026-64.652zM444.996 889.517c-10.14-20.941-22.413-42.518-27.713-65.203-11.76 26.219-14.626 55.841-6.833 83.519 6.696 23.78 22.207 43.577 35.027 64.652.315-4.397.572-8.797.785-13.201-.558-23.226.383-46.599-1.266-69.767zM755.562 953.545c-10.06 15.702-21.172 30.882-27.935 48.165v54.97c9.28-27.27 21.817-53.29 40.968-76.271 15.109-18.128 32.057-35.514 33.092-59.824.869-20.455-7.881-39.301-21.447-54.681.976 13.052.074 26.244-2.844 39.174-3.93 17.428-12.117 33.298-21.834 48.467zM719.917 733.788c-13.361 21.673-25.521 44.95-24.997 70.484.516 25.092 13.539 48.978 24.997 71.751 11.458-22.773 24.481-46.66 24.997-71.751.524-25.534-11.637-48.811-24.997-70.484zM762.716 907.833c7.793-27.678 4.928-57.3-6.832-83.519-5.3 22.685-17.575 44.264-27.714 65.203-1.649 23.168-.708 46.541-1.266 69.767.213 4.404.47 8.804.785 13.201 12.82-21.075 28.331-40.872 35.027-64.652zM712.207 1001.71c-6.763-17.283-17.872-32.465-27.935-48.165-9.719-15.166-17.905-31.042-21.835-48.467-2.916-12.93-3.821-26.122-2.844-39.174-13.565 15.38-22.316 34.226-21.446 54.681 1.034 24.31 17.982 41.696 33.092 59.824 19.15 22.981 31.688 49.001 40.968 76.271v-54.97zM711.663 889.517c-10.14-20.941-22.413-42.518-27.713-65.203-11.76 26.219-14.626 55.841-6.833 83.519 6.696 23.78 22.207 43.577 35.027 64.652.315-4.397.572-8.797.786-13.201-.559-23.226.382-46.599-1.267-69.767zM798.248 1042.58c20.503-32.52 40.603-78.804 16.051-113.563-1.517 9.629-4.893 18.968-10.188 27.685-9.975 16.425-24.684 29.75-35.62 45.568-21.764 31.48-32.279 68.15-40.864 104.48v54.97c5.068-11.04 10.412-21.97 16.175-32.71 16.077-29.98 36.272-57.6 54.446-86.43zM646.64 1050.45c9.527 14.61 19.38 29.03 28.792 43.7 14 21.83 25.984 44.55 36.775 67.82v-55.21c-4.762-20.13-10.08-40.19-17.551-59.59-6.973-18.12-16.028-35.58-27.936-51.288-11.523-15.203-26.185-28.546-34.581-45.703-3.364-6.876-5.514-13.899-6.611-20.949-11.281 16.741-13.245 38.17-9.215 57.459 4.83 23.111 17.386 43.911 30.327 63.761zM1029.38 907.833c7.8-27.678 4.93-57.3-6.83-83.519-5.3 22.685-17.57 44.264-27.713 65.203-1.649 23.168-.708 46.541-1.267 69.767.214 4.404.471 8.804.786 13.201 12.824-21.075 28.334-40.872 35.024-64.652zM1064.91 1042.58c20.51-32.52 40.61-78.804 16.06-113.563-1.52 9.629-4.9 18.968-10.19 27.685-9.98 16.425-24.69 29.75-35.62 45.568-21.77 31.48-32.28 68.15-40.867 104.48v54.97c5.068-11.04 10.417-21.97 16.177-32.71 16.08-29.98 36.27-57.6 54.44-86.43zM1022.23 953.545c-10.06 15.702-21.17 30.882-27.937 48.165v54.97c9.277-27.27 21.817-53.29 40.967-76.271 15.11-18.128 32.06-35.514 33.09-59.824.87-20.455-7.88-39.301-21.44-54.681.97 13.052.07 26.244-2.85 39.174-3.93 17.428-12.11 33.298-21.83 48.467zM978.329 889.517c-10.14-20.941-22.413-42.518-27.713-65.203-11.76 26.219-14.625 55.841-6.832 83.519 6.696 23.78 22.207 43.577 35.027 64.652.314-4.397.572-8.797.785-13.201-.559-23.226.383-46.599-1.267-69.767zM913.307 1050.45c9.526 14.61 19.38 29.03 28.792 43.7 14 21.83 25.984 44.55 36.774 67.82v-55.21c-4.761-20.13-10.08-40.19-17.55-59.59-6.974-18.12-16.028-35.58-27.936-51.288-11.523-15.203-26.186-28.546-34.582-45.703-3.364-6.876-5.513-13.899-6.61-20.949-11.282 16.741-13.246 38.17-9.215 57.459 4.829 23.111 17.385 43.911 30.327 63.761zM978.873 1001.71c-6.762-17.283-17.872-32.465-27.934-48.165-9.719-15.166-17.906-31.042-21.835-48.467-2.916-12.93-3.821-26.122-2.844-39.174-13.565 15.38-22.316 34.226-21.447 54.681 1.035 24.31 17.983 41.696 33.092 59.824 19.151 22.981 31.688 49.001 40.968 76.271v-54.97zM986.584 733.788c-13.361 21.673-25.521 44.95-24.997 70.484.516 25.092 13.538 48.978 24.997 71.751 11.457-22.773 24.476-46.66 24.996-71.751.52-25.534-11.636-48.811-24.996-70.484zM1245.54 1001.71c-6.76-17.283-17.87-32.465-27.93-48.165-9.72-15.166-17.91-31.042-21.84-48.467-2.92-12.93-3.82-26.122-2.84-39.174-13.57 15.38-22.32 34.226-21.45 54.681 1.03 24.31 17.98 41.696 33.09 59.824 19.15 22.981 31.69 49.001 40.97 76.271v-54.97zM1179.97 1050.45c9.53 14.61 19.38 29.03 28.8 43.7 14 21.83 25.98 44.55 36.77 67.82v-55.21c-4.76-20.13-10.08-40.19-17.55-59.59-6.97-18.12-16.03-35.58-27.94-51.288-11.52-15.203-26.18-28.546-34.58-45.703-3.36-6.876-5.51-13.899-6.61-20.949-11.28 16.741-13.24 38.17-9.21 57.459 4.83 23.111 17.38 43.911 30.32 63.761zM1288.89 953.545c-10.05 15.702-21.17 30.882-27.93 48.165v54.97c9.28-27.27 21.81-53.29 40.97-76.271 15.11-18.128 32.06-35.514 33.1-59.824.86-20.455-7.9-39.301-21.46-54.681.98 13.052.07 26.244-2.84 39.174-3.93 17.428-12.12 33.298-21.84 48.467zM1253.25 733.788c-13.36 21.673-25.52 44.95-25 70.484.52 25.092 13.54 48.978 25 71.751 11.46-22.773 24.48-46.66 24.99-71.751.53-25.534-11.63-48.811-24.99-70.484zM1296.05 907.833c7.79-27.678 4.92-57.3-6.84-83.519-5.29 22.685-17.57 44.264-27.7 65.203-1.66 23.168-.71 46.541-1.27 69.767.21 4.404.47 8.804.79 13.201 12.81-21.075 28.33-40.872 35.02-64.652zM1245 889.517c-10.14-20.941-22.42-42.518-27.72-65.203-11.76 26.219-14.62 55.841-6.83 83.519 6.7 23.78 22.21 43.577 35.03 64.652.31-4.397.57-8.797.78-13.201-.56-23.226.39-46.599-1.26-69.767zM1331.59 1042.58c20.49-32.52 40.6-78.804 16.04-113.563-1.51 9.629-4.9 18.968-10.19 27.685-9.97 16.425-24.68 29.75-35.61 45.568-21.76 31.48-32.28 68.15-40.87 104.48v54.97c5.07-11.04 10.41-21.97 16.17-32.71 16.08-29.98 36.28-57.6 54.46-86.43zM1466.72 995.882c-11.52-15.203-26.19-28.546-34.59-45.703-3.36-6.876-5.5-13.899-6.6-20.949-11.28 16.741-13.25 38.17-9.21 57.459 4.83 23.111 17.37 43.911 30.32 63.761 9.52 14.61 19.39 29.03 28.79 43.7 14 21.83 25.98 44.55 36.78 67.82v-55.21c-4.77-20.13-10.09-40.19-17.56-59.59-6.97-18.12-16.02-35.58-27.93-51.288zM1462.44 905.078c-2.92-12.93-3.83-26.122-2.84-39.174-13.57 15.38-22.32 34.226-21.45 54.681 1.04 24.31 17.98 41.696 33.09 59.824 19.15 22.981 31.68 49.001 40.97 76.271v-54.97c-6.77-17.283-17.88-32.465-27.94-48.165-9.72-15.166-17.9-31.042-21.83-48.467zM1386.85 16.148l-.08-.207-.09.219h.07l.1-.012zM1302.56 238.352c9.97-16.42 24.68-29.756 35.61-45.574 21.76-31.479 32.28-68.142 40.87-104.479V33.335c-5.07 11.046-10.41 21.971-16.17 32.714-16.08 29.978-36.28 57.605-54.46 86.432-20.49 32.521-40.6 78.801-16.04 113.556 1.51-9.629 4.9-18.968 10.19-27.685zM1343.95 287.221c-7.79 27.678-4.92 57.299 6.84 83.518 5.29-22.684 17.57-44.263 27.7-65.203 1.66-23.167.71-46.54 1.27-69.766-.21-4.403-.47-8.8-.79-13.196-12.81 21.07-28.33 40.867-35.02 64.647zM1444.23 289.976c2.92 12.93 3.82 26.122 2.84 39.174 13.57-15.38 22.32-34.226 21.45-54.681-1.04-24.31-17.99-41.697-33.09-59.829-19.15-22.976-31.68-49.005-40.96-76.257v54.964c6.76 17.284 17.86 32.461 27.93 48.162 9.72 15.166 17.89 31.042 21.83 48.467zM1422.72 370.739c11.76-26.219 14.63-55.84 6.83-83.518-6.7-23.78-22.2-43.577-35.03-64.647-.31 4.396-.57 8.793-.79 13.196.56 23.226-.37 46.599 1.27 69.766 10.15 20.942 22.41 42.519 27.72 65.203zM1351.11 241.509c10.05-15.701 21.17-30.878 27.93-48.162v-54.964c-9.28 27.252-21.81 53.281-40.97 76.257-15.11 18.132-32.06 35.519-33.08 59.829-.88 20.455 7.88 39.301 21.44 54.681-.98-13.052-.07-26.244 2.84-39.174 3.93-17.428 12.12-33.298 21.84-48.467zM1361.76 390.781c-.53 25.535 11.63 48.812 24.99 70.485 13.36-21.673 25.52-44.95 25-70.485-.52-25.091-13.54-48.977-25-71.75-11.46 22.773-24.48 46.66-24.99 71.75zM1439.95 199.173c11.52 15.201 26.18 28.548 34.58 45.701 3.36 6.876 5.51 13.9 6.6 20.949 11.28-16.74 13.26-38.174 9.22-57.457-4.83-23.11-17.38-43.906-30.32-63.758-9.52-14.607-19.39-29.032-28.79-43.712-14-21.826-25.99-44.536-36.77-67.816v55.207c4.76 20.143 10.08 40.188 17.54 59.604 6.98 18.119 16.03 35.573 27.94 51.282zM1077.28 287.221c-7.79 27.678-4.92 57.299 6.84 83.518 5.3-22.684 17.57-44.263 27.71-65.203 1.65-23.167.71-46.54 1.27-69.766-.22-4.403-.47-8.8-.79-13.196-12.82 21.07-28.33 40.867-35.03 64.647zM1095.09 390.781c-.53 25.535 11.63 48.812 24.99 70.485 13.36-21.673 25.52-44.95 25-70.485-.52-25.091-13.54-48.977-25-71.75-11.45 22.773-24.48 46.66-24.99 71.75zM1035.89 238.352c9.98-16.42 24.68-29.756 35.62-45.574 21.76-31.479 32.28-68.142 40.86-104.479V33.335c-5.06 11.046-10.41 21.971-16.17 32.714-16.08 29.978-36.27 57.605-54.45 86.432-20.5 32.521-40.6 78.801-16.05 113.556 1.52-9.629 4.89-18.968 10.19-27.685zM1120.19 16.148l-.09-.207-.09.219h.07l.11-.012zM1156.05 370.739c11.76-26.219 14.63-55.84 6.83-83.518-6.69-23.78-22.2-43.577-35.02-64.647-.32 4.396-.57 8.793-.79 13.196.56 23.226-.38 46.599 1.27 69.766 10.14 20.942 22.41 42.519 27.71 65.203zM1084.44 241.509c10.06-15.701 21.17-30.878 27.93-48.162v-54.964c-9.28 27.252-21.81 53.281-40.96 76.257-15.11 18.132-32.06 35.519-33.1 59.829-.87 20.455 7.88 39.301 21.45 54.681-.98-13.052-.07-26.244 2.84-39.174 3.93-17.428 12.12-33.298 21.84-48.467zM1177.56 289.976c2.92 12.93 3.82 26.122 2.85 39.174 13.56-15.38 22.31-34.226 21.44-54.681-1.03-24.31-17.98-41.697-33.09-59.829-19.15-22.976-31.69-49.005-40.97-76.257v54.964c6.77 17.284 17.88 32.461 27.94 48.162 9.72 15.166 17.9 31.042 21.83 48.467zM1173.28 199.173c11.52 15.201 26.19 28.548 34.58 45.701 3.37 6.876 5.51 13.9 6.61 20.949 11.28-16.74 13.25-38.174 9.22-57.457-4.83-23.11-17.39-43.906-30.33-63.758-9.53-14.607-19.38-29.032-28.79-43.712-14-21.826-25.99-44.536-36.78-67.816v55.207c4.76 20.143 10.08 40.188 17.55 59.604 6.98 18.119 16.03 35.573 27.94 51.282zM889.384 370.739c11.76-26.219 14.625-55.84 6.832-83.518-6.696-23.78-22.207-43.577-35.027-64.647-.315 4.396-.571 8.793-.785 13.196.558 23.226-.383 46.599 1.266 69.766 10.14 20.942 22.414 42.519 27.714 65.203zM828.42 390.781c-.524 25.535 11.636 48.812 24.997 70.485 13.36-21.673 25.521-44.95 24.997-70.485-.516-25.091-13.539-48.977-24.997-71.75-11.458 22.773-24.481 46.66-24.997 71.75zM817.772 241.509c10.06-15.701 21.172-30.878 27.935-48.162v-54.964c-9.28 27.252-21.818 53.281-40.968 76.257-15.11 18.132-32.058 35.519-33.092 59.829-.87 20.455 7.881 39.301 21.446 54.681-.976-13.052-.072-26.244 2.844-39.174 3.931-17.428 12.118-33.298 21.835-48.467zM906.614 199.173c11.524 15.201 26.185 28.548 34.581 45.701 3.364 6.876 5.513 13.9 6.611 20.949 11.281-16.74 13.245-38.174 9.214-57.457-4.829-23.11-17.385-43.906-30.326-63.758-9.527-14.607-19.38-29.032-28.792-43.712-14-21.826-25.984-44.536-36.775-67.816v55.207c4.761 20.143 10.08 40.188 17.551 59.604 6.973 18.119 16.028 35.573 27.936 51.282zM910.896 289.976c2.918 12.93 3.822 26.122 2.844 39.174 13.566-15.38 22.316-34.226 21.447-54.681-1.035-24.31-17.983-41.697-33.092-59.829-19.151-22.976-31.688-49.005-40.968-76.257v54.964c6.763 17.284 17.872 32.461 27.935 48.162 9.718 15.166 17.905 31.042 21.834 48.467zM853.524 16.148l-.09-.207-.09.219h.069l.111-.012zM769.223 238.352c9.976-16.42 24.684-29.756 35.62-45.574 21.764-31.479 32.278-68.142 40.864-104.479V33.335c-5.068 11.046-10.412 21.971-16.175 32.714-16.077 29.978-36.272 57.605-54.447 86.432-20.502 32.521-40.602 78.801-16.05 113.556 1.517-9.629 4.893-18.968 10.188-27.685zM810.617 287.221c-7.793 27.678-4.927 57.299 6.833 83.518 5.301-22.684 17.574-44.263 27.713-65.203 1.649-23.167.708-46.54 1.267-69.766-.214-4.403-.471-8.8-.786-13.196-12.819 21.07-28.331 40.867-35.027 64.647zM622.717 370.739c11.76-26.219 14.626-55.84 6.832-83.518-6.696-23.78-22.206-43.577-35.026-64.647-.315 4.396-.571 8.793-.786 13.196.559 23.226-.382 46.599 1.267 69.766 10.14 20.942 22.413 42.519 27.713 65.203zM543.95 287.221c-7.793 27.678-4.927 57.299 6.833 83.518 5.301-22.684 17.574-44.263 27.713-65.203 1.649-23.167.708-46.54 1.267-69.766-.214-4.403-.471-8.8-.786-13.196-12.818 21.07-28.331 40.867-35.027 64.647zM586.857 16.148l-.089-.207-.091.219h.07l.11-.012zM502.556 238.352c9.976-16.42 24.684-29.756 35.62-45.574 21.764-31.479 32.278-68.142 40.864-104.479V33.335c-5.068 11.046-10.412 21.971-16.175 32.714-16.077 29.978-36.272 57.605-54.447 86.432-20.502 32.521-40.602 78.801-16.05 113.556 1.517-9.629 4.893-18.968 10.188-27.685zM639.947 199.173c11.524 15.201 26.185 28.548 34.581 45.701 3.364 6.876 5.513 13.9 6.611 20.949 11.281-16.74 13.245-38.174 9.214-57.457-4.829-23.11-17.385-43.906-30.326-63.758-9.527-14.607-19.38-29.032-28.792-43.712-14-21.826-25.984-44.536-36.775-67.816v55.207c4.761 20.143 10.08 40.188 17.551 59.604 6.973 18.119 16.028 35.573 27.936 51.282zM644.229 289.976c2.918 12.93 3.822 26.122 2.844 39.174 13.566-15.38 22.316-34.226 21.447-54.681-1.035-24.31-17.983-41.697-33.092-59.829-19.151-22.976-31.688-49.005-40.968-76.257v54.964c6.763 17.284 17.872 32.461 27.935 48.162 9.718 15.166 17.905 31.042 21.834 48.467zM561.753 390.781c-.524 25.535 11.636 48.812 24.997 70.485 13.361-21.673 25.521-44.95 24.997-70.485-.516-25.091-13.539-48.977-24.997-71.75-11.458 22.773-24.481 46.66-24.997 71.75zM551.106 241.509c10.06-15.701 21.172-30.878 27.934-48.162v-54.964c-9.28 27.252-21.817 53.281-40.968 76.257-15.109 18.132-32.057 35.519-33.092 59.829-.869 20.455 7.882 39.301 21.447 54.681-.976-13.052-.072-26.244 2.844-39.174 3.931-17.428 12.117-33.298 21.835-48.467zM277.284 287.221c-7.793 27.678-4.928 57.299 6.832 83.518 5.301-22.684 17.575-44.263 27.713-65.203 1.65-23.167.708-46.54 1.267-69.766-.213-4.403-.471-8.8-.785-13.196-12.82 21.07-28.331 40.867-35.027 64.647zM320.191 16.148l-.091-.207-.089.219h.069l.111-.012zM377.563 289.976c2.917 12.93 3.821 26.122 2.844 39.174 13.565-15.38 22.316-34.226 21.446-54.681-1.034-24.31-17.982-41.697-33.092-59.829-19.15-22.976-31.688-49.005-40.968-76.257v54.964c6.763 17.284 17.872 32.461 27.935 48.162 9.719 15.166 17.905 31.042 21.835 48.467zM356.051 370.739c11.76-26.219 14.625-55.84 6.832-83.518-6.696-23.78-22.207-43.577-35.027-64.647-.315 4.396-.571 8.793-.785 13.196.558 23.226-.383 46.599 1.266 69.766 10.14 20.942 22.414 42.519 27.714 65.203zM295.087 390.781c-.524 25.535 11.636 48.812 24.997 70.485 13.36-21.673 25.52-44.95 24.996-70.485-.516-25.091-13.539-48.977-24.996-71.75-11.459 22.773-24.481 46.66-24.997 71.75zM373.28 199.173c11.524 15.201 26.185 28.548 34.581 45.701 3.364 6.876 5.514 13.9 6.611 20.949 11.281-16.74 13.245-38.174 9.215-57.457-4.83-23.11-17.386-43.906-30.327-63.758-9.527-14.607-19.38-29.032-28.792-43.712-14-21.826-25.984-44.536-36.775-67.816v55.207c4.762 20.143 10.08 40.188 17.551 59.604 6.973 18.119 16.028 35.573 27.936 51.282zM284.439 241.509c10.06-15.701 21.172-30.878 27.934-48.162v-54.964c-9.28 27.252-21.817 53.281-40.968 76.257-15.109 18.132-32.057 35.519-33.092 59.829-.869 20.455 7.882 39.301 21.447 54.681-.976-13.052-.073-26.244 2.844-39.174 3.931-17.428 12.117-33.298 21.835-48.467zM235.889 238.352c9.976-16.42 24.684-29.756 35.62-45.574 21.764-31.479 32.279-68.142 40.864-104.479V33.335c-5.068 11.046-10.412 21.971-16.174 32.714-16.078 29.978-36.272 57.605-54.447 86.432-20.503 32.521-40.603 78.801-16.051 113.556 1.518-9.629 4.894-18.968 10.188-27.685zM10.618 287.221c-7.794 27.678-4.93 57.299 6.831 83.518 5.301-22.684 17.575-44.263 27.714-65.203 1.649-23.167.707-46.54 1.266-69.766-.214-4.403-.47-8.8-.784-13.196-12.82 21.07-28.332 40.867-35.027 64.647zM53.524 16.148l-.09-.207-.09.219h.07l.11-.012zM89.384 370.739c11.76-26.219 14.625-55.84 6.832-83.518-6.696-23.78-22.207-43.577-35.027-64.647-.315 4.396-.57 8.793-.785 13.196.558 23.226-.383 46.599 1.266 69.766 10.14 20.942 22.414 42.519 27.714 65.203zM110.896 289.976c2.917 12.93 3.821 26.122 2.844 39.174 13.566-15.38 22.317-34.226 21.446-54.681-1.033-24.31-17.982-41.697-33.09-59.829-19.152-22.976-31.69-49.005-40.97-76.257v54.964C67.89 210.631 79 225.808 89.061 241.509c9.719 15.166 17.904 31.042 21.835 48.467zM-30.778 238.352c9.976-16.42 24.684-29.756 35.62-45.574 21.764-31.479 32.28-68.142 40.865-104.479V33.335C40.638 44.38 35.294 55.306 29.532 66.049 13.455 96.028-6.74 123.654-24.914 152.481c-20.503 32.521-40.603 78.801-16.052 113.556 1.519-9.629 4.894-18.968 10.188-27.685zM28.42 390.781c-.524 25.535 11.636 48.812 24.997 70.485 13.36-21.673 25.52-44.95 24.996-70.485-.516-25.091-13.538-48.977-24.996-71.75-11.458 22.773-24.482 46.66-24.997 71.75zM106.614 199.173c11.522 15.201 26.184 28.548 34.58 45.701 3.364 6.876 5.514 13.9 6.611 20.949 11.281-16.74 13.245-38.174 9.215-57.457-4.83-23.11-17.386-43.906-30.327-63.758-9.527-14.607-19.38-29.032-28.792-43.712-14-21.826-25.984-44.536-36.774-67.816v55.207c4.76 20.143 10.08 40.188 17.55 59.604 6.975 18.119 16.028 35.573 27.937 51.282zM45.707 193.347v-54.964c-9.28 27.252-21.817 53.281-40.969 76.257-15.108 18.132-32.057 35.519-33.091 59.829-.87 20.455 7.88 39.301 21.447 54.681-.977-13.052-.074-26.244 2.843-39.174 3.931-17.428 12.117-33.298 21.835-48.467 10.06-15.701 21.172-30.878 27.935-48.162z"/>
        </g>
    </g>
</svg>
