<svg version="1" xmlns="http://www.w3.org/2000/svg" width="1441.333" height="1441.333" viewBox="0 0 1081.000000 1081.000000"><path d="M682.6 183.4c-1.2 1.3-11.5 15.5-22.9 31.7-11.4 16.2-33.6 47.4-49.2 69.4-15.7 22-28.9 40.7-29.5 41.5-.6.8-7.6 10.7-15.6 22s-16.9 23.7-19.6 27.7c-2.8 4-5.4 7.3-5.7 7.3-.7 0-10.7-14-43.5-61-5.8-8.3-11.4-16.2-12.4-17.5l-1.7-2.4-39.7-.1H403l7.9 11.2c4.4 6.2 10.7 15.1 14 19.8 3.3 4.7 15 21.3 26 37s20.5 29.2 21.1 30c.6.8 14.8 21.1 31.6 45 36.5 52.1 35.7 51 36.6 50.7.6-.2 14.6-19.7 34.6-48.2 2-2.8 13.9-19.6 26.5-37.5 12.7-17.9 24.5-34.5 26.2-37 1.8-2.5 21.3-30.2 43.5-61.5 22.2-31.4 50.4-71.2 62.6-88.5 12.2-17.3 22.6-32 23.1-32.5.4-.6 2-2.9 3.5-5.2l2.7-4.2-39.1.1c-39 0-39.1 0-41.2 2.2zM249.7 304c.9 1.4 4.6 6.8 8.2 12 3.7 5.2 7.3 10.5 8.1 11.7 1.7 2.4 15.6 22.1 29.5 41.8 8.7 12.2 61.5 87.4 71.3 101.5 2.5 3.6 6 8.5 7.7 11 1.8 2.5 11.4 16.2 21.5 30.5s18.4 26.9 18.4 28c0 1.1-10.5 16.8-23.2 35-34.7 49.2-66.8 94.9-80.2 114-6.6 9.3-12.5 17.8-13.2 18.7-6.5 8.6-48.7 69.5-48.8 70.3 0 1.4 76.8 1.4 78.5 0 1-.8 29.7-41.5 47.5-67.1 1.9-2.8 7.7-11.2 12.9-18.5 5.2-7.4 10.9-15.4 12.6-17.9 1.8-2.5 8.4-11.9 14.8-21s14.6-20.9 18.4-26.3c3.7-5.4 7.5-10.6 8.3-11.7.8-1 4.6-6.3 8.3-11.7 3.8-5.4 15.4-21.9 25.8-36.7 18-25.7 18.8-27.1 17.4-29.2-1.2-1.9-23.4-33.6-27.9-39.9-1.4-1.9-44.2-62.7-51.1-72.5-1.7-2.5-5.8-8.3-9-13-3.3-4.7-9.1-13-13-18.5-3.9-5.5-9.3-13.2-12-17-2.7-3.9-13.4-19.2-23.9-34-10.4-14.9-21.3-30.4-24.2-34.5l-5.2-7.5h-79.1l1.6 2.5zM749.1 306.7c-4.7 6.9-30 42.9-49.9 71.1-8.6 12.3-16.1 23.1-16.7 24-.5.9-1.2 1.9-1.5 2.2-.3.3-14.9 21-32.4 46-17.6 25-33.2 47.3-34.8 49.5-2.8 3.9-28.8 40.8-28.8 40.9 0 .1 4.8 7 15.8 22.6 2.1 3 17.7 25.3 34.7 49.5 17 24.2 32.9 46.9 35.4 50.5 2.5 3.6 4.9 6.9 5.4 7.5.4.5 10.9 15.4 23.2 33 21.9 31.3 25.7 36.7 28.3 40.3 2.2 2.9 10.4 14.6 16.7 23.7 3.3 4.8 6.5 9.4 7.2 10.3 1 1.5 5.2 1.7 40 1.8 21.3 0 39.2-.1 39.6-.4.4-.2-.3-1.8-1.6-3.5-2.3-3.1-21.9-30.9-48-68.2-17.7-25.3-35.5-50.6-40.3-57.3-2.2-3.1-13.9-19.7-25.8-36.7-12-17.1-22.4-31.9-23.2-33-.8-1.1-7.4-10.6-14.8-21l-13.3-19 5.3-7.5c6.5-9.1 14.5-20.6 15.9-22.8.6-.8 1.5-2.3 2.2-3.1 3.6-4.7 12.3-17.3 12.3-17.7 0-.3.6-1.1 1.3-1.8.6-.7 8.2-11.3 16.7-23.5s17.3-24.8 19.6-27.9c6.9-9.6 94.4-134.3 94.4-134.5 0-.1-17.8-.2-39.6-.2h-39.6l-3.7 5.2zM534.5 592.2c-3.6 5.2-71 100.4-80.5 113.8-.6.8-8 11.4-16.6 23.5-17.8 25.2-22.5 31.8-27.4 38.6-1.9 2.7-7.3 10.3-12 17-4.7 6.8-10.5 15.1-13 18.5-2.5 3.4-5.1 7.1-5.8 8.1-6.1 8.7-26.6 37.7-38.7 54.8-23.7 33.5-23.8 33.5-22.3 33.6.7 0 18.4.1 39.2.2l38 .2 3.8-5c2.1-2.8 15.8-21.9 30.4-42.5 14.6-20.6 27.6-39.1 29-41 5.3-7.3 22.4-31.3 34.4-48.3 14.8-21 43.5-61.4 45.7-64.2.8-1.1 1.7-1.6 1.9-1 .4.8 18.1 26.3 23 33 2.3 3.1 19.1 27.2 24.5 35 2.7 3.8 5.9 8.3 7.3 10l2.4 3h38.7c21.3 0 38.9-.3 39.1-.6.2-.4-1.8-3.6-4.4-7.3-2.6-3.6-7.3-10.3-10.5-14.8-9.6-13.6-29.6-42.2-30.7-43.8-.8-1.2-21-29.8-26-37-.6-.8-5.8-8.3-11.6-16.5-5.8-8.3-11.2-15.9-12-17-2.9-4-8.7-12.1-12-17-12.8-18.5-28.3-40.5-28.7-40.5-.1 0-2.4 3.2-5.2 7.2z"/></svg>